<?xml version="1.0" encoding="UTF-8"?>
<svg id="Layer_30" data-name="Layer 30" xmlns="http://www.w3.org/2000/svg" viewBox="0 0 520 520">
  <defs>
    <style>
      .cls-1 {
        fill: #231f20;
      }

      .cls-2 {
        opacity: .35;
      }
    </style>
  </defs>
  <path class="cls-1" d="M62.09,376.09l9.57,.39,3.49,.08,12.3,.58c1.82,.08,3.65,.1,5.46,.12,1.16,0,2.32,.04,3.49,.1,1.16,.1,2.32,.28,3.48,.44,.72,.12,.62,.23,0,.44-.62,.2-1.75,.62-3.09,.85-2.38,.24-4.74,.14-7.12,.08-2.37-.07-4.75-.18-7.14-.35-2.85-.2-5.83-.18-8.75-.28l-9.64-.35-5.93-.21c-2.99-.1-6-.19-8.98-.25-2.31-.04-4.58,.02-6.87,.02-.5,0-1,0-1.5,0-.94-.02-1.56-.08-1.99-.21-.43-.12-.68-.25-.88-.43-.09-.08-.21-.16-.26-.24-.18-.24,.6-.48,1.98-.69,4.09-.32,8.4-.43,12.73-.39,3.21,.09,6.44,.17,9.66,.26v.05Z"/>
  <path class="cls-1" d="M141.74,294.2c2.47-3.76,4.99-7.49,7.59-11.16,.94-1.35,1.83-2.72,2.81-4.04,1.7-2.34,3.47-4.63,5.23-6.92,1.8-2.26,3.62-4.51,5.49-6.72l2.48-2.95c.82-.99,1.64-1.97,2.49-2.93,2.14-2.48,4.46-4.84,7.15-6.77,.82-.62,.74-.5,.27,.25-.23,.38-.56,.92-.93,1.58-.2,.34-.4,.69-.62,1.06-.1,.19-.23,.38-.33,.59-.14,.18-.28,.36-.43,.54l-1.57,1.91c-.52,.64-1,1.32-1.54,1.94-1.1,1.23-2.16,2.49-3.23,3.76-2.14,2.52-4.26,5.08-6.38,7.66-2.57,3.06-4.93,6.5-7.32,9.83-2.6,3.67-5.18,7.37-7.66,11.13-1.53,2.32-3.05,4.64-4.51,6.99-1.11,1.78-2.22,3.57-3.33,5.36-1.12,1.78-2.2,3.58-3.24,5.39-1.65,2.79-3.09,5.63-4.64,8.44-.33,.62-.65,1.24-.98,1.87-1.29,2.3-1.86,2.95-2.37,3.32-.12,.08-.26,.2-.35,.24-.3,.13,.03-.91,.76-2.72,2.31-5.28,5.11-10.67,8.02-16.03,1.09-1.99,2.22-3.95,3.44-5.87,1.21-1.92,2.39-3.86,3.63-5.76l.05,.03Z"/>
  <path class="cls-1" d="M348.01,383.63s21.92-2.69,30.36-3.07c8.43-.39-30.36-.69-30.36-.69v3.77Z"/>
  <path class="cls-1" d="M225.53,377.2c-4.67-.66,18.19,1.07,35.49,3.16,10.58,1.28,18.51,3.27,18.51,3.27l-5.81-6.43h-48.19Z"/>
  <path class="cls-1" d="M247.18,421.82c-1.08-.53-2.13-1.13-3.14-1.7-.51-.29-1-.56-1.45-.77-.42-.18-.75-.28-1.28-.3-.72-.06-1.56,.09-2.38,.11-2.97,.12-6.11,.31-9.17-.19-1.36-.17-2.71-.54-4-.97-.41-.14-.81-.34-1.22-.5-.41-.16-.8-.37-1.17-.6-.8-.37-1.39-1.09-2.02-1.67-.38-.38-.3-.36,.15-.22,.45,.15,1.32,.32,2.22,.59,1.48,.72,3.08,1.14,4.69,1.38,1.6,.3,3.26,.43,4.95,.46,2.04,.06,4.14-.4,6.33-.57,.62-.03,1.24-.05,1.9,0,.32,0,.7,.11,1.05,.17,.34,.11,.7,.24,.97,.38,1.15,.56,2.11,1.16,3.14,1.71,1.25,.68,2.53,1.29,3.86,1.79,2,.77,4.08,1.39,6.19,1.73,.82,.13,1.64,.21,2.46,.23,.82,.05,1.64,.03,2.46,.02,.36,0,.71-.03,1.07,.01,1.34,.11,1.77,.32,2.06,.87,.07,.12,.16,.25,.2,.36,.14,.37-.43,.77-1.46,.98l-1.16,.23c-.39,.05-.78,.03-1.18,.05-.79,.02-1.59-.02-2.4-.1-1.61-.12-3.23-.45-4.83-.84-2.38-.61-4.69-1.51-6.88-2.59l.02-.05Z"/>
  <path class="cls-1" d="M158.87,342.39c-.82,1.5-1.61,3.01-2.32,4.56-.26,.56-.46,1.15-.7,1.72-.87,2-1.69,4.03-2.2,6.14-.22,.94-.35,1.9-.37,2.84-.09,1.21-.2,2.42-.13,3.67,0,.39-.12,.38-.37,.09-.25-.28-.71-.85-.94-1.61-.17-.66-.37-1.36-.41-2.04,0-.69,.1-1.36,.19-2.03,.21-1.34,.57-2.63,1.04-3.89,.56-1.49,1.01-3.08,1.66-4.55,.71-1.62,1.51-3.2,2.34-4.75,.51-.96,1.04-1.9,1.57-2.84,.82-1.41,1.64-2.83,2.45-4.23,.6-1.09,1.19-2.17,1.78-3.26l.38-.71c.53-.86,.77-1.03,1.08-1.14,.07-.02,.14-.08,.21-.11,.11-.05,.2,.03,.23,.31,.02,.23-.01,.57-.11,.95-.72,2.21-1.68,4.33-2.86,6.34-.84,1.51-1.69,3.02-2.49,4.55l-.04-.02Z"/>
  <path class="cls-1" d="M408.74,436.59c-.59-.2-15.86,1.7-11.17,4.11,3.33,1.71,24.1,2.35,24.1,2.35l-12.93-6.46Z"/>
  <path class="cls-1" d="M395.68,419.21c-.73-.16-13.52-6.13-13.33-17.3,0,0-4-1.81-3.99,2.33s3,8.66,8.66,12.7c5.65,4.04,8.66,2.27,8.66,2.27Z"/>
  <path class="cls-1" d="M433.04,439.91s-19.39,1.58-24.3-3.32c-4.89-4.9-8.97-12.95-12.78-20.62-3.81-7.67-2.9-18.52-2.9-18.52-2.53-2.21,.56-6.07,4.1-5.31,4.04,.87,42.93,3.1,42.93,3.1,0,0-23.51,1.67-23.98,21.75-.2,8.42,7.52,19.58,16.93,22.91Z"/>
  <path class="cls-1" d="M343.21,405.44s10.23-.99,13.9,2.53c3.67,3.51-18.8,8.19-29.96,5.41-9.52-2.37,16.06-7.93,16.06-7.93Z"/>
  <path class="cls-1" d="M345.96,391.96c-7.34,24.43-34.12,14.96-34.12,14.96,0,0,12.92,10.29,23.24,5.25,14.11-6.89,10.88-20.21,10.88-20.21Z"/>
  <polygon class="cls-1" points="304.23 333.44 308.01 333.44 311.84 350.13 304.23 333.44"/>
  <path class="cls-1" d="M192.64,398.35c.88-1.52,1.81-3.01,2.8-4.47,.35-.54,.68-1.09,1.07-1.61,1.38-1.81,2.9-3.52,4.51-5.12,.7-.73,1.4-1.47,2.11-2.17,.48-.43,.95-.89,1.44-1.31,.12-.11,.26-.2,.39-.29l.45-.21c.3-.14,.61-.26,.92-.38,.4-.14,.54,.16,.54,.72,0,.28-.03,.63-.09,1-.03,.18-.07,.37-.13,.55-.03,.09-.07,.17-.09,.27-.05,.07-.11,.13-.17,.19-1.66,1.79-3.44,3.43-5.3,5.17-1.12,1.03-1.94,2.39-2.85,3.65l-1.5,2.09c-.48,.71-.98,1.42-1.44,2.15-.57,.89-1.14,1.79-1.67,2.72-.81,1.39-1.61,2.81-2.3,4.26-.52,1.13-.95,2.28-1.44,3.42-.11,.25-.2,.5-.31,.75-.43,.92-.68,1.16-1.17,1.18-.11,0-.23,.02-.33,0-.34-.05-.43-.54-.24-1.28,.28-1.09,.61-2.19,.99-3.3,.39-1.1,.87-2.18,1.36-3.26,.73-1.6,1.55-3.17,2.39-4.73l.05,.03Z"/>
  <path class="cls-1" d="M203.82,406.92c-1.96,5.21-17,16.15-20.13,12.53s4.07-13.63,4.65-14.02l15.48,1.48Z"/>
  <path class="cls-1" d="M252.85,305.55c1.9-.39,3.8-.84,5.65-1.42,.67-.22,1.33-.49,1.99-.74,2.37-.79,4.71-1.74,6.94-2.9,1.01-.48,1.91-1.16,2.87-1.72,1.18-.8,2.3-1.68,3.74-2.16,.44-.16,.54,.07,.46,.59-.04,.26-.12,.61-.24,1-.06,.19-.14,.4-.23,.6-.04,.1-.1,.19-.15,.31-.07,.08-.14,.16-.22,.23-1.17,.96-2.32,2-3.68,2.69-1.33,.74-2.72,1.4-4.16,1.93-1.71,.65-3.4,1.51-5.15,2.16-1.93,.67-3.89,1.28-5.87,1.74-1.21,.32-2.45,.54-3.67,.81-1.86,.36-3.74,.64-5.58,.95-1.44,.24-2.83,.55-4.26,.74-.32,.03-.62,.06-.95,.06-1.19,.01-1.58-.18-1.87-.63-.07-.1-.15-.2-.19-.29-.13-.3,.31-.7,1.14-1.02,.62-.23,1.23-.46,1.86-.68,.63-.18,1.26-.34,1.9-.49,.64-.14,1.27-.35,1.92-.43,.65-.1,1.3-.21,1.95-.32,1.93-.3,3.86-.65,5.77-1.08l.02,.07Z"/>
  <path class="cls-1" d="M246.96,294.33c-.59,.39-14.5,8.35-13.09,11.77s17.88,4.9,19.32,2.35-6.23-14.12-6.23-14.12Z"/>
  <path class="cls-1" d="M206.84,228.77l-1.18-1.07c-.64-.57-1.26-1.18-1.85-1.76-1.19-1.2-1.91-2.35-2.1-3.21-.03-.11-.07-.22-.08-.33v-.3c-.01-.2,.02-.4,.04-.62,0-.23,.09-.47,.26-.72l.25-.36,.12-.17,.17-.11c.23-.16,.44-.29,.66-.42,.22-.12,.49-.13,.73-.19,.49-.06,.93-.16,1.58-.06l.65,.05c.11,.02,.2,0,.33,.04l.39,.13,1.56,.51c.52,.17,1.06,.4,1.6,.63l.67,.3,.47,.22c4.28,2.23,8.22,4.93,11.94,7.89l2.43,2.04c.79,.7,1.58,1.4,2.36,2.1,1,.91,1.92,1.9,2.72,2.99,.82,1.08,1.45,2.31,2.11,3.48,.39,.74,.31,.66-.32,.27-.63-.39-1.88-1-3.27-1.72-.58-.36-1.08-.77-1.63-1.14-.28-.18-.55-.36-.84-.53l-.73-.64c-.98-.84-2.01-1.65-3.02-2.46-1.04-.78-2.05-1.6-3.07-2.44-1.01-.84-2.06-1.64-3.1-2.46-1.26-.97-2.64-1.82-4.07-2.59-.72-.38-1.44-.76-2.17-1.11-.37-.17-.73-.36-1.09-.53-.48-.21-.46-.22-.61-.29-.28-.14-.58-.28-.91-.41-.32-.13-.73-.27-1.09-.11-.19,.09-.18,.3-.11,.44,.06,.15,.15,.29,.25,.43,.21,.28,.46,.55,.73,.84l.26,.27,.44,.43c.4,.39,.8,.78,1.21,1.16l2.48,2.28c2.52,2.3,5.01,4.68,7.45,7.05,1.9,1.84,3.84,3.59,5.66,5.5,.4,.42,.81,.82,1.19,1.26,.7,.83,1.14,1.4,1.32,1.9,.17,.5,.15,.88,0,1.29-.07,.18-.12,.39-.21,.54-.16,.25-.46,.26-.88,.1-.42-.16-.95-.51-1.49-1.06-3.25-3.23-6.63-6.62-10.18-9.93-2.64-2.46-5.32-4.91-8.08-7.36l.05-.06Z"/>
  <path class="cls-1" d="M213.43,242.34c-1.08-1.18-2.26-2.29-3.48-3.36-.46-.38-.97-.67-1.43-1.05-1.62-1.32-3.3-2.62-5.09-3.75-.39-.26-.81-.47-1.23-.68-.41-.22-.82-.47-1.24-.66-1.08-.52-2.19-.95-3.1-1.89-.29-.28-.13-.55,.33-.82,.23-.14,.54-.29,.9-.42,.18-.06,.37-.12,.56-.16,.1-.02,.19-.03,.3-.06,.09,.01,.18,.02,.27,.05,1.22,.37,2.47,.73,3.61,1.32,1.12,.62,2.18,1.36,3.19,2.18,1.2,.99,2.63,1.7,3.89,2.65,1.4,1.02,2.7,2.16,3.98,3.33,.77,.74,1.54,1.47,2.27,2.25,1.14,1.14,2.14,2.41,3.22,3.6,.81,.94,1.81,1.73,2.55,2.75,.17,.22,.38,.4,.52,.65,.13,.22,.23,.41,.29,.59,.05,.18,.03,.36,0,.51-.06,.31-.23,.56-.52,.85-.13,.13-.25,.27-.39,.38-.44,.35-1.13,.28-1.83-.1-.79-.71-1.7-1.33-2.36-2.13-.68-.79-1.37-1.59-2.04-2.41-1.05-1.18-2.07-2.42-3.24-3.53l.06-.07Z"/>
  <path class="cls-1" d="M264.05,287.71c-1.19-1.83-2.35-3.69-3.5-5.56-.43-.67-.91-1.31-1.31-2.01-1.4-2.45-2.73-4.94-3.88-7.53-.52-1.14-1.05-2.28-1.57-3.41-.66-1.46-1.12-3.03-1.31-4.64-.06-.5,.22-.5,.69-.21,.45,.3,1.15,.85,1.61,1.6l.64,.99,.32,.49,.26,.52c.38,.68,.76,1.36,1.11,2.04,.38,.68,.77,1.36,1.13,2.05,.34,.71,.69,1.42,1.01,2.15,.79,1.74,2.01,3.32,3.08,4.95,1.18,1.8,2.38,3.59,3.62,5.36,.78,1.08,1.53,2.18,2.32,3.25,1.19,1.63,2.37,3.28,3.67,4.82,1.02,1.18,2.13,2.25,3.18,3.39,.23,.25,.45,.51,.65,.79,.72,1.06,.79,1.53,.43,2.17-.08,.15-.15,.31-.24,.43-.32,.41-.99,.29-1.8-.25-2.47-1.54-4.38-3.75-6.22-6.05-1.36-1.72-2.67-3.48-3.94-5.29l.07-.05Z"/>
  <path class="cls-1" d="M260.71,250.87l-1.9,1.95c-.23,.24-.39,.53-.65,.76-.88,.81-1.83,1.57-2.85,2.26-.48,.27-.9,.61-1.38,.9-.29,.19-.59,.4-.93,.52-.34,.13-.73,.13-1.11,.1-.24-.03-.31-.43-.3-.93,.01-.5,.05-1.13,.23-1.41,.77-.75,1.44-1.49,2.6-2.03,.67-.35,1.06-1.05,1.57-1.61,.56-.63,1.14-1.27,1.71-1.94l1.04-1.24c.52-.63,1.08-1.25,1.52-1.94,.33-.54,.54-1.17,.84-1.73,.07-.12,.11-.26,.19-.38,.29-.43,.58-.43,1.23-.08,.15,.08,.3,.15,.44,.23,.46,.28,.75,.75,.7,1.17-.08,.62-.23,1.21-.44,1.76-.24,.53-.54,1.04-.85,1.53-.48,.74-.99,1.46-1.58,2.14l-.07-.05Z"/>
  <path class="cls-1" d="M241.09,307.76c4,.22,8.19-.29,12.25-1.23,1.49-.34,2.93-.86,4.38-1.31,2.57-.8,5.11-1.74,7.56-2.88,2.45-1.15,4.82-2.46,7.08-3.96,2.01-1.32,3.81-2.95,5.48-4.63,2.12-2.22,3.83-4.67,6.1-6.88,.7-.7,.95-.43,1.01,.58,.03,.51,.03,1.21-.04,2.06-.04,.42-.11,.86-.24,1.3-.15,.42-.35,.85-.6,1.27-.45,.72-.92,1.44-1.46,2.11-.53,.67-1.14,1.27-1.71,1.9-1.18,1.23-2.43,2.38-3.76,3.44-2.64,2.12-5.52,3.92-8.59,5.31-3.66,1.66-7.39,3.48-11.32,4.65-2.15,.65-4.34,1.15-6.55,1.56-2.22,.37-4.46,.63-6.72,.73-2.78,.1-5.61-.05-8.42-.76-.53-.12-1.06-.34-1.59-.51-.52-.23-1.05-.46-1.56-.76-1.02-.6-1.99-1.49-2.61-2.67-.62-1.23-.6-2.61-.33-3.82,.33-1.21,.94-2.24,1.63-3.11,1.08-1.36,2.3-2.48,3.55-3.52,1.26-1.03,2.57-1.95,3.92-2.79,.6-.38,1.17-.75,1.79-1.09,2.3-1.21,3.13-1.34,4.06-.71,.21,.13,.45,.24,.6,.38,.51,.43-.1,1.61-1.64,2.64-2.26,1.58-4.53,3.17-6.55,4.85-.99,.85-1.9,1.74-2.57,2.63-.67,.9-1,1.71-.96,2.21,.02,.38,.11,.57,.45,.95,.14,.19,.45,.36,.72,.55,.34,.16,.66,.36,1.07,.49,1.6,.59,3.58,.87,5.57,.94v.1Z"/>
  <path class="cls-1" d="M347.17,362.39c1.37,8.4,2.36,16.96,1.78,25.64-.28,4.32-.92,8.7-2.45,12.93-.78,2.1-1.79,4.17-3.16,6.05-1.38,1.87-3.19,3.51-5.28,4.63l-.57,.32-.6,.25-1.2,.49-2.41,.69c-.82,.14-1.63,.29-2.45,.42l-2.46,.17c-3.28,.06-6.48-.48-9.55-1.33-5.43-1.49-10.43-3.99-15.13-6.86-4.7-2.88-9.08-6.2-13.22-9.76-8.3-7.13-15.63-15.24-22.36-23.77-5.97-7.58-11.49-15.56-16.57-23.65-3.3-5.18-6.35-10.53-9.27-15.94-1.43-2.72-2.87-5.44-4.19-8.21l-1.99-4.15c-.61-1.41-1.17-2.84-1.71-4.28-1.23-3.64-1.02-3.17,.91-.51,.97,1.33,2.35,3.2,3.8,5.56,1.48,2.34,3.1,5.15,4.81,8.21,6.02,10.87,12.44,21.49,19.57,31.66,7.17,10.12,15.04,19.8,23.99,28.48,5.38,5.13,11.29,9.99,17.82,13.87,3.26,1.94,6.64,3.68,10.17,5.01,3.52,1.3,7.17,2.28,10.82,2.49,1,.01,2.01,.11,2.99,0,.49-.04,1-.04,1.48-.12l1.46-.25c1.94-.42,3.76-1.06,5.29-2.16,3.13-2.17,5.01-5.87,6.16-9.7,1.09-3.9,1.56-8.03,1.64-12.17,.08-4.15-.15-8.33-.55-12.5-1.01-10.27-3.16-20.46-5.8-30.49-4.05-15.19-9.27-30.17-15.54-44.48-2.44-5.56-5.06-10.97-7.88-16.25-2.82-5.28-5.82-10.43-9.12-15.38-1.45-2.18-2.95-4.25-4.54-6.33-2.93-3.87-5.13-6.09-6.61-7.66-1.47-1.59-2.33-2.5-3.04-3.36-.31-.43-.85-.79-1.06-1.11-.18-.26-.07-.4,.34-.44,.21-.02,.49,0,.85,.03,.36,.04,.75,.18,1.24,.32,.95,.32,2.07,.88,3.34,1.67,1.23,.81,2.55,1.93,3.87,3.27,3.93,4,7.24,8.51,10.3,13.21,3.05,4.7,5.84,9.61,8.45,14.65,5.23,10.07,9.79,20.61,13.84,31.37,5.96,16,10.86,32.5,13.84,49.45l-.09,.04Z"/>
  <path class="cls-1" d="M302.73,335.88c-1.42-3.67-2.78-7.36-4.05-11.07-.46-1.36-1.01-2.68-1.46-4.03-1.55-4.8-3-9.61-4.39-14.44-.63-2.14-1.35-4.26-2.06-6.34-.45-1.35-.98-2.66-1.37-4.03l-.59-2.05c-.21-.68-.26-1.41-.41-2.11-.13-.89,0-.82,.55-.22,.34,.36,.74,.78,1.17,1.22,.45,.52,.87,1.18,1.22,1.92,.65,1.31,1.19,2.66,1.71,4.02,.53,1.35,1.04,2.71,1.54,4.07,.99,2.73,1.94,5.47,2.78,8.27,.94,3.36,2.32,6.72,3.54,10.07l2.01,5.52c.66,1.85,1.36,3.67,2.06,5.5,.85,2.25,1.77,4.48,2.7,6.7,1.45,3.34,2.92,6.7,4.62,9.89,.67,1.23,1.37,2.44,2.11,3.61,.76,1.16,1.49,2.33,2.22,3.51,.31,.52,.67,1,1,1.52,1.1,1.99,1.26,2.75,.89,3.57-.08,.18-.14,.4-.23,.53-.29,.45-1.25-.04-2.41-1.33-.88-.94-1.7-1.95-2.44-3.02-.74-1.07-1.52-2.14-2.2-3.27-1.31-2.29-2.62-4.63-3.77-7.05-1.77-3.56-3.31-7.25-4.83-10.91l.08-.04Z"/>
  <path class="cls-1" d="M310.03,346.52c-.64-2.16-1.26-4.32-1.83-6.5-.22-.79-.5-1.56-.69-2.36-.35-1.4-.6-2.84-.84-4.26-.25-1.43-.47-2.85-.7-4.28-.2-1.26-.41-2.53-.61-3.78-.11-.81-.27-1.6-.33-2.42-.04-.82-.03-1.64-.02-2.46,.02-.51,.17-.46,.48-.08,.29,.39,.85,1.09,1.22,1.96,.59,1.56,.98,3.14,1.47,4.7,.35,1.59,.69,3.18,.98,4.8,.16,.97,.43,1.94,.74,2.89,.29,.96,.59,1.93,.88,2.89,.61,2.12,1.25,4.24,1.95,6.35,.42,1.3,.86,2.59,1.33,3.88,.72,1.94,1.41,3.91,2.24,5.8,.65,1.47,1.48,2.82,2.24,4.23,.17,.31,.34,.61,.48,.93,.25,.6,.37,1.02,.32,1.37-.07,.36-.27,.63-.6,.92-.15,.13-.29,.28-.45,.39-.27,.18-.57,.2-.91,.08-.33-.12-.72-.36-1.01-.76-.92-1.15-1.66-2.43-2.32-3.76-.66-1.33-1.27-2.71-1.84-4.12-.83-2.09-1.53-4.25-2.26-6.39l.08-.03Z"/>
  <path class="cls-1" d="M167.77,330.14c-1.6,2.59-3.06,5.28-4.48,7.99-.49,1.01-.87,2.05-1.37,3.05-1.67,3.56-3.25,7.19-4.5,10.95-.53,1.67-.97,3.38-1.31,5.09-.23,1.09-.47,2.19-.7,3.28-.26,1.09-.66,2.15-1.07,3.23-.27,.67-.65,.52-1.08-.15-.41-.67-1.01-1.89-1.1-3.27,.06-1.19,.29-2.35,.45-3.53,.18-1.17,.55-2.3,.86-3.44l.5-1.7,.59-1.68c.41-1.11,.82-2.23,1.32-3.31,.59-1.3,1.06-2.66,1.6-4.01,.51-1.36,1.01-2.74,1.62-4.05,1.27-2.92,2.77-5.74,4.34-8.5,.47-.86,1-1.68,1.5-2.52,.5-.84,1.01-1.67,1.55-2.49,.79-1.25,1.6-2.49,2.46-3.7,.82-1.23,1.7-2.42,2.53-3.62,.65-.94,1.3-1.87,1.94-2.79,.63-.94,1.28-1.87,2.02-2.73,.32-.38,.6-.78,.96-1.14,1.39-1.27,1.98-1.52,2.73-1.36,.17,.03,.34,.04,.47,.09,.4,.14,.28,1.05-.36,2.25-.46,.9-.96,1.78-1.45,2.66-.24,.45-.52,.86-.8,1.28l-.82,1.28c-.55,.85-1.11,1.7-1.67,2.56-.57,.85-1.18,1.67-1.74,2.53-.83,1.28-1.72,2.53-2.52,3.84l-1.23,1.94-1.16,1.99-.08-.04Z"/>
  <path class="cls-1" d="M191.24,402.3c-2.05,3.17-3.85,6.55-5,10.08-.1,.32-.21,.64-.3,.97l-.2,.97-.21,.97c-.08,.32-.07,.64-.13,.96l-.16,1.21c-.02,.27,.02,.6,.11,.88,.08,.3,.22,.55,.28,.62,.09,.1,.23,.21,.38,.18,.05,.02,.05,0,.15,.01h.27c.18,0,.36,0,.54-.02,.36-.04,.72-.04,1.09-.11,.73-.1,1.46-.27,2.19-.47,1.46-.4,2.88-1.01,4.26-1.7,1.95-.97,3.79-2.2,5.5-3.55,2.21-1.74,4.17-3.76,6.33-5.61,.67-.58,.83-.29,.61,.53-.23,.8-.73,2.27-1.89,3.51-2.04,2.19-4.29,4.22-6.79,5.96-.63,.43-1.28,.84-1.94,1.23-.68,.37-1.36,.73-2.07,1.04-1.41,.63-2.89,1.17-4.45,1.49-.62,.13-1.25,.24-1.9,.33l-.98,.11-.5,.02h-.26c-.12,.02-.24,0-.37,.04-1,0-1.95-.55-2.53-1.37-.55-.75-.8-1.47-.96-2.26-.04-.2-.06-.4-.08-.6v-.31s0-.25,0-.25l.06-.99c.03-.66,.08-1.32,.23-1.93,.8-4.15,2.54-7.88,4.51-11.41,1.21-2.18,2.61-4.23,4.05-6.25,2.23-3.02,4.77-5.82,7.43-8.43,.52-.5,1.04-1.01,1.56-1.51,.51-.51,1.08-.96,1.62-1.44,1.04-1.01,2.28-1.79,3.47-2.63,.55-.34,1.11-.65,1.68-.96,1.06-.59,1.86-.79,2.44-.85,.58-.07,.96,.05,1.31,.3,.16,.11,.34,.19,.45,.31,.33,.34-.35,1.23-1.73,2.02-.51,.3-.99,.7-1.48,1.04-.49,.36-.99,.68-1.45,1.1-.93,.8-1.88,1.57-2.81,2.4-1.9,1.59-3.66,3.43-5.4,5.29l-1.85,2.17c-.61,.73-1.17,1.5-1.77,2.25-1.16,1.52-2.28,3.07-3.27,4.7l-.07-.04Z"/>
  <path class="cls-1" d="M128.49,320.94c-2.67,5.29-5.14,10.67-7.34,16.15-2.2,5.48-4.16,11.06-5.67,16.74-.59,2.07-.99,4.17-1.43,6.26-.34,2.1-.71,4.2-.9,6.3-.38,3.7-.52,7.43,.04,11.02l.57,2.64c.27,.84,.58,1.67,.86,2.51,.76,1.67,1.58,3.32,2.58,4.87,3.91,6.28,9.84,11.18,16.35,14.94,5.81,3.36,12.2,5.74,18.57,7.8,4.11,1.32,8.3,2.39,12.49,3.53,2.09,.6,4.19,1.15,6.27,1.77l6.26,1.88c2.59,.81,2.2,.89-.12,.74-1.2-.08-2.84-.19-4.79-.32-1.99-.13-4.31-.36-6.79-.82-1.1-.21-2.2-.4-3.29-.63l-3.26-.79c-2.17-.54-4.34-1.12-6.5-1.74-2.16-.62-4.31-1.3-6.45-2.05-2.12-.79-4.24-1.6-6.31-2.53-4.17-1.82-8.22-4-12.03-6.6-3.78-2.64-7.33-5.72-10.24-9.39-1.74-2.18-3.31-4.55-4.63-7.07-1.33-2.47-2.28-5.39-2.82-8.22-.9-5.73-.48-11.46,.47-16.95,1.06-6.05,2.76-11.92,4.75-17.66,2-5.74,4.32-11.35,6.83-16.85,3.11-6.77,6.55-13.38,10.2-19.86,5.54-9.81,11.73-19.29,18.21-28.39,5.07-7.05,10.17-13.9,15.82-20.41,1.24-1.44,2.49-2.81,3.81-4.2,4.91-5.13,6.92-6.33,8.51-6.84,.37-.11,.82-.29,1.08-.31,.89-.03-.92,2.24-4.27,6.11-.63,.71-1.27,1.41-1.9,2.13-.62,.73-1.24,1.46-1.86,2.19-1.26,1.44-2.47,2.96-3.7,4.45-2.5,2.97-4.94,6.03-7.37,9.15-4.83,6.24-9.51,12.75-13.93,19.46-6.55,9.97-12.66,20.3-17.95,31.02l-.09-.03Z"/>
  <path class="cls-1" d="M263.17,396.33c-2.07-.64-4.17-1.16-6.29-1.52-1.06-.18-2.12-.33-3.19-.42-1.05-.08-2.09-.13-3.17-.11-4.32,.07-8.78,.71-13.3,1.15-3.3,.32-6.65,.72-10.11,.53l-1.14-.07-1.16-.14c-.77-.07-1.55-.26-2.32-.42-.38-.06-.8-.25-1.2-.38l-.59-.22-.51-.23c-.68-.31-1.39-.6-2.04-.92-2.66-1.25-5.24-2.56-7.84-3.85-5.18-2.59-10.36-5.18-15.58-7.65-4.63-2.2-9.36-4.27-14.07-6.16-1.51-.61-3.03-1.21-4.57-1.75-1.53-.56-3.06-1.14-4.6-1.65-.77-.26-1.53-.56-2.29-.84-.76-.29-1.53-.53-2.29-.81-.38-.14-.77-.25-1.14-.42l-1.11-.53-2.27-.92c-1.89-.81-1.63-.84,.18-.93,.89-.03,2.22-.19,3.8-.22,.79-.02,1.6,.14,2.48,.26,.88,.13,1.78,.35,2.7,.62,12.92,4.28,25.02,10.2,36.99,16.45,3.58,1.87,7.27,3.71,11,5.41,.47,.22,.93,.41,1.39,.61,.44,.18,.96,.44,1.35,.54,.41,.14,.8,.3,1.29,.37,.47,.08,.92,.2,1.41,.24,1.91,.26,3.92,.26,5.92,.18,4.42-.17,8.91-.8,13.46-1.25,2.28-.23,4.59-.41,6.94-.41,2.38,0,4.72,.27,7.01,.69,5.66,1.04,11.06,3.02,16.14,5.56,3.85,1.94,7.53,4.22,10.91,6.93,.84,.68,1.67,1.4,2.46,2.15,.39,.38,.78,.77,1.16,1.18,.19,.2,.37,.41,.56,.63,.21,.25,.42,.51,.65,.82,.89,1.22,1.51,2.53,1.36,3.78-.06,.64-.48,1.25-1.03,1.59-.55,.34-1.2,.51-1.85,.51-1,0-2.11-.4-3.16-.9-.89-.43-1.53-.79-2.28-1.19-1.43-.78-2.83-1.56-4.25-2.28-2.83-1.45-5.72-2.7-8.69-3.71-1.31-.45-2.61-.8-3.96-1.16-.62-.16-1.19-.31-1.72-.45-.52-.16-.99-.3-1.42-.43-.86-.28-1.56-.46-2.13-.7-1.14-.46-1.79-.85-2.31-1.27-.23-.2-.56-.39-.69-.56-.22-.28,.21-.44,1.22-.59,1-.14,2.59-.26,4.59,0,5.92,.77,11.8,3.02,17.25,5.9,1.36,.71,2.7,1.47,4,2.19l.96,.52,.46,.24,.33,.17c.07,.03,.04,0,.06,0,.01,0,0-.03,0-.03,0,0,0,0-.01,0l-.17-.2-.33-.37c-.23-.25-.46-.49-.71-.74-2.97-2.9-6.67-5.41-10.47-7.55-3.83-2.13-7.88-3.9-12.06-5.17v-.09Z"/>
  <path class="cls-1" d="M268.25,409.32c1.8,.82,3.57,1.67,5.35,2.44,.65,.29,1.33,.49,1.97,.75,2.27,.96,4.55,1.84,6.91,2.28,.52,.06,1.05,.16,1.58,.15,.52-.02,1.05-.03,1.56-.08,.64-.15,1.31-.24,1.92-.4,.29-.08,.49-.17,.53-.19,.06,.01,.13-.12,.29-.39,.35-.33,.56-.37,1.15,.08,.29,.23,.57,.6,.49,1.29-.04,.34-.24,.74-.52,1.03-.28,.3-.58,.48-.85,.59-3.29,1.24-6.63,.88-9.54-.17-1.75-.63-3.53-1.13-5.24-1.79-1.85-.75-3.67-1.57-5.47-2.36-1.11-.49-2.22-.97-3.34-1.42-1.7-.66-3.4-1.35-5.14-1.8-1.35-.37-2.73-.47-4.09-.64-.3-.05-.6-.02-.9-.06-1.11-.16-1.41-.48-1.54-1.28-.03-.18-.08-.37-.09-.55-.03-.6,.51-1.01,1.41-1.1,2.67-.16,5.37,.53,7.96,1.37,1.94,.62,3.79,1.42,5.64,2.18l-.02,.07Z"/>
  <path class="cls-1" d="M263.36,414.6c1.62,.82,3.25,1.54,4.92,2.17,.61,.22,1.25,.36,1.86,.57,2.15,.81,4.4,1.44,6.69,1.93,1.01,.27,2.05,.42,3.07,.55,.66,.08,1.32,.16,1.98,.28,.66,.11,1.32,.26,1.97,.52,.41,.16,.34,.29-.03,.55-.19,.13-.45,.3-.77,.5-.32,.17-.69,.3-1.08,.36l-1.05,.13c-.35,.03-.7,.02-1.05,.03-.7,0-1.4,.01-2.1-.03-.7-.05-1.41-.08-2.09-.24-.69-.15-1.38-.34-2.06-.54-1.62-.51-3.38-.73-5.05-1.24-1.83-.58-3.59-1.31-5.32-2.07-1.06-.48-2.1-.98-3.15-1.46-1.58-.74-3.12-1.54-4.71-2.18-1.23-.52-2.55-.74-3.77-1.21-.27-.1-.55-.16-.82-.27-1-.41-1.22-.78-1.15-1.58,.02-.18,.02-.37,.05-.54,.11-.56,.72-.89,1.55-.81,2.51,.15,4.84,1.14,7.12,2.16,1.66,.78,3.34,1.56,5.01,2.34l-.03,.08Z"/>
  <path class="cls-1" d="M237.72,418.52c-2.43-.03-4.79-.4-7.06-.95-.57-.12-1.13-.3-1.69-.47-.55-.16-1.12-.35-1.69-.55-1.12-.41-2.2-.88-3.25-1.39-1.53-.74-3.04-1.48-4.45-2.34l-3.61-2.17-.04-.03h-.02s0-.02,0-.02h0c-.06,.11,.51-1.06,.26-.53l-.12,.22c-.22,.43-.15,.27-.18,.3h-.03s-.11-.06-.11-.06l-.43-.13-.96-.3c-.66-.2-1.34-.39-2.02-.57-2.73-.73-5.51-1.36-8.3-1.94-2.48-.5-4.99-.89-7.47-1.25-3.19-.48-6.42-.66-9.55-1.67-.98-.3-.84-.34,.04-.56,.44-.11,1.07-.28,1.83-.5,.76-.17,1.63-.25,2.57-.25,6.62,.46,13.21,1.23,19.77,2.68,.99,.21,1.98,.43,2.98,.65l1.54,.34c.25,.05,.54,.14,.81,.22,.22,.06,.74,.26,.99,.39,1.04,.58,1.82,1.1,2.71,1.62,.86,.53,1.74,.99,2.61,1.47,1.92,1.01,3.87,1.94,5.87,2.58,2.04,.62,4.15,1.16,6.26,1.44,1.3,.17,2.61,.25,3.91,.21,.65-.03,1.3-.07,1.96-.16l1.02-.13c.37-.05,.96-.12,1.44-.01,.35,.09,.77,.29,1,.41l.72,.38,1.38,.75c.91,.49,1.82,.98,2.75,1.44,1.84,.92,3.71,1.79,5.61,2.5,2.96,1.11,6,1.78,9.01,2.1,.66,.05,1.31,.05,1.97,.17,2.43,.24,3.18,.46,3.81,1.3,.14,.19,.33,.38,.42,.56,.16,.32-.01,.62-.49,.91-.24,.15-.56,.29-.94,.42-.39,.14-.85,.27-1.36,.31-.76,.06-1.55,.2-2.32,.18-.77,0-1.56-.04-2.32-.15-1.54-.18-3.07-.5-4.58-.9-3.01-.81-5.92-1.97-8.73-3.29-2.08-.97-4.12-2.08-6.06-3.15l-.6-.32s-.01,0-.02-.02c.17-.03-.58,.06-1.14,.13-1.19,.14-2.44,.22-3.67,.21v-.09Z"/>
  <path class="cls-1" d="M74.79,377.79c-3.95-.04-7.91-.03-11.87,.03-1.45,.02-2.89,.17-4.33,.19-5.1,.11-10.2,.23-15.31,.48-2.27,.1-4.53,.35-6.77,.51-1.44,.12-2.88,.24-4.33,.36-1.45,.06-2.91,0-4.36-.08-.91-.06-.82-.45-.1-1,.72-.54,2.06-1.37,3.69-1.79,5.84-.99,11.74-1.32,17.72-1.37,3.57-.02,7.27-.45,10.92-.61,4.01-.18,8.03-.3,12.05-.33,2.47-.02,4.95-.01,7.42,0,3.74,.05,7.51,.11,11.22,.16,1.44,.02,2.88-.02,4.31-.07,1.43,.01,2.85,.02,4.28,.04,.63,.01,1.25,0,1.88,.05,1.17,.11,1.94,.28,2.47,.53,.53,.24,.83,.5,1.06,.85,.1,.16,.25,.31,.3,.46,.19,.46-.79,.88-2.52,1.23-1.28,.19-2.57,.26-3.87,.36-1.3,.09-2.61,.17-3.93,.23-2.63,.02-5.3-.04-7.97-.06-3.97-.05-7.96-.13-11.95-.08v-.09Z"/>
  <path class="cls-1" d="M252.17,378.6c-2.98-.2-5.98-.32-8.98-.39-1.09-.03-2.19,.07-3.28,.04-3.86-.07-7.73-.14-11.6-.06-1.72,.03-3.44,.16-5.13,.31-1.09,.12-2.18,.19-3.28,.22-.55,0-1.1-.05-1.66-.1l-.83-.09c-.28-.04-.56-.13-.84-.19-.7-.2-.62-.33-.07-.79,.54-.51,1.55-1.35,2.79-1.76,2.21-.52,4.46-.6,6.71-.69,2.25-.08,4.51-.09,6.78,0,2.72,.11,5.53-.16,8.3-.18,3.05-.03,6.1,.03,9.15,.1l5.63,.22c2.84,.12,5.69,.37,8.51,.49,2.19,.11,4.36,.03,6.54,.09,.48,0,.96-.02,1.44,.03,.45,.03,.82,.09,1.12,.19,.3,.1,.55,.17,.74,.33,.38,.35,.57,.68,.72,1.08,.06,.18,.16,.35,.19,.5,.05,.26-.11,.46-.47,.72-.35,.25-.91,.63-1.56,.65-3.88,.29-7.86-.02-11.9-.2-3-.15-6.01-.3-9.02-.44v-.09Z"/>
  <path class="cls-1" d="M458.67,377.99c2.83,.08,5.67,.11,8.52,.14,1.04,0,2.08-.1,3.12-.07,3.68,.11,7.38,.35,11.06,.6,1.63,.15,3.28,.11,4.89,.22,1.04,.05,2.08,.06,3.12,.14,1.04,.07,2.08,.23,3.08,.77,.62,.33,.52,.51-.06,1-.29,.24-.71,.65-1.19,.94-.24,.15-.51,.33-.78,.42-.27,.08-.56,.12-.86,.12-4.21,.14-8.36-.13-12.58-.55-2.53-.28-5.16,0-7.76-.01l-8.62-.03-5.32-.08c-2.69-.03-5.38-.17-8.04-.16-2.07,0-4.11,.19-6.16,.28-.45,.02-.9,.08-1.35,.03-1.68-.12-2.21-.42-2.52-1.32-.07-.21-.17-.41-.21-.61-.13-.67,.59-1.22,1.82-1.47,.92-.19,1.84-.35,2.77-.38,.93-.07,1.87-.12,2.81-.14,1.89-.04,3.79-.05,5.71-.01,2.84,.02,5.69,.11,8.54,.09v.09Z"/>
  <path class="cls-1" d="M396.41,394.28l-.26-.06c-.07-.02-.22-.05-.19-.05l-.05-.02-.11-.05s-.09-.05-.12-.03l-.05,.1-.04,.13s-.01,.04-.02,.08l-.06,.44c-.08,.58-.2,1.16-.3,1.74-.12,1.17-.28,2.34-.29,3.51-.08,2.35,.07,4.73,.5,7.07,.4,2.2,1.07,4.33,1.81,6.45,2.61,7.5,7.18,14.36,12.62,20.37,1.22,1.32,2.52,2.59,3.87,3.73l.51,.42c.17,.14,.35,.27,.41,.31,.09,.07,.19,.12,.31,.12l.47,.06c.86,.11,1.75,.18,2.64,.23,2.29,.13,4.61,.1,6.92,.06,1.16-.01,2.32,.03,3.47,.05,.58,0,1.16,.04,1.74,.11l1.75,.14c1.46,.13,1.32,.5,.14,1.24-.59,.37-1.44,.86-2.49,1.37-1.05,.46-2.32,.78-3.69,.93-2.45,.15-4.89,.13-7.37,.03-1.24-.06-2.48-.15-3.78-.32-.11,0-.46-.07-.72-.12-.27-.08-.58-.07-.81-.26-.27-.1-.51-.27-.77-.41-.12-.07-.25-.18-.32-.23l-.21-.16c-.53-.42-1.01-.83-1.48-1.25-3.73-3.37-7-7.12-9.68-11.35-3.21-5-6.35-10.43-8.06-16.37-.93-3.24-1.49-6.6-1.58-9.99-.05-.84-.02-1.69,.01-2.54,0-.85,.1-1.69,.19-2.53,.06-.84,.21-1.68,.36-2.51l.11-.62c.05-.22,.06-.36,.15-.71l.47-1.79,.03-.06,.45-.84,.11-.21,.06-.11,.03-.05h0s-.08-.13,.09,.11h0s.01-.01,.01-.01c0,0,.02-.02,.02-.02,.13-.08,.25-.12,.37-.19,.52-.2,1.33-.01,2.07,.19l1.84,.49c.48,.13,.96,.25,1.44,.37,1.92,.47,3.85,.88,5.8,1.23,5.89,1.08,11.92,1.61,17.87,1.55,4.63-.04,9.13-.65,13.63-1.34,.99-.17,1.96-.33,2.95-.49,3.69-.64,4.92-.53,5.87-.01,.22,.12,.49,.23,.63,.36,.47,.43-.92,1.29-3.63,2.17-8.08,2.42-17.09,2.97-25.98,2.47-6.61-.41-13.22-1.38-19.68-2.86v-.09Z"/>
  <path class="cls-1" d="M449.22,416.18c-.39,1.12-.75,2.24-1.2,3.33l-.65,1.64-.7,1.62c-.33,.79-.61,1.6-1,2.37-1.33,2.72-2.93,5.29-4.63,7.76-.72,1.12-1.48,2.22-2.18,3.34-.48,.7-1,1.37-1.53,2.04-.53,.66-1.24,1.19-1.9,1.74-.43,.33-.66,.04-.74-.6-.04-.32-.06-.73-.03-1.18,.02-.22,.04-.46,.09-.69l.08-.35c.05-.1,.1-.21,.16-.31,.41-.73,.78-1.48,1.22-2.18l1.39-2.05c.92-1.37,1.85-2.75,2.79-4.14,1.14-1.66,1.9-3.63,2.75-5.49,.47-1.03,.9-2.08,1.34-3.12,.39-1.06,.84-2.11,1.18-3.19l.66-1.99,.57-2.02c.29-1.02,.5-2.06,.74-3.09,.21-1.04,.38-2.09,.52-3.13,.07-.82,.1-1.63,.11-2.43-.01-.81-.04-1.61-.02-2.42,0-.35-.01-.7-.02-1.06,.03-.33,.07-.6,.13-.83,.07-.23,.18-.41,.28-.56,.21-.3,.44-.48,.75-.62,.14-.07,.27-.15,.4-.19,.39-.13,.82,.42,1.26,1.44,.78,3.03,.49,6.27-.06,9.43-.18,1.18-.48,2.34-.73,3.51-.32,1.15-.6,2.31-.96,3.45l-.08-.02Z"/>
  <path class="cls-1" d="M382.28,414.48c-1.77-1.77-3.29-3.88-4.3-6.26l-.54-1.31c-.14-.45-.32-.9-.4-1.37-.09-.51-.19-1.01-.22-1.53-.06-.55-.05-.88-.06-1.8,.04-.42,.09-.83,.28-1.2,.18-.37,.46-.69,.77-.96,.31-.27,.68-.48,1.05-.65,.43-.2,.72-.27,1.02-.35,1.2-.3,2.32-.3,3.43-.28,1.4,.06,2.78,.17,4.13,.37,.43,.06,.87,.13,1.3,.21,.43,.1,.85,.23,1.26,.37,.41,.15,.83,.29,1.21,.53,.38,.24,.74,.5,1.1,.78,.43,.36,.22,.66-.38,.97-.3,.16-.69,.35-1.14,.53-.22,.08-.46,.19-.69,.24-.22,.03-.45,.05-.67,.02-.4-.04-.79-.08-1.18-.11-.39-.03-.76-.13-1.15-.19-.76-.13-1.53-.22-2.29-.29-1.5-.14-3.07-.13-4.28,.04-.22-.06-.59,.12-.53,.43,0,.04,0,.06,0,.13,0,.13,0,.27,.02,.4l.1,.79c.11,.52,.22,1.05,.37,1.56,.56,1.96,1.65,3.83,3.07,5.46,.87,1.01,1.86,1.95,2.93,2.78,1.63,1.25,3.42,2.38,5.34,3.13,1.49,.59,3.07,.84,4.55,.94,.33,.02,.64-.01,.95,.02,.57,.06,.89,.08,1.14,.25,.25,.21,.45,.47,.68,.77,.11,.14,.25,.26,.34,.39,.16,.21,.17,.46-.06,.82-.23,.35-.68,.79-1.31,.9-1.81,.46-3.5,.16-5.14-.22-1.63-.42-3.19-1.07-4.68-1.84-2.21-1.16-4.25-2.66-6.09-4.41l.05-.06Z"/>
  <path class="cls-1" d="M433.56,367.56c1.98,.21,3.78,.09,4.73-.61,.61-.48,1.32-1.11,1.44-1.5,.16-.37,.21-.62-.1-1.26-.32-.61-.89-1.34-1.65-2-.72-.68-1.57-1.32-2.44-1.95-1.77-1.25-3.68-2.42-5.61-3.59-2.82-1.72-5.79-3.31-8.57-5.43-1.22-.94-2.46-1.91-3.56-3.2-.27-.34-.53-.69-.79-1.04-.25-.38-.46-.8-.69-1.2-.18-.45-.35-.92-.48-1.4-.06-.51-.19-1.03-.14-1.55,.03-1.06,.38-2.06,.83-2.89,.47-.84,1.09-1.55,1.76-2.14,1.36-1.16,2.85-1.88,4.32-2.44,2.94-1.1,5.87-1.64,8.72-2.25,2.82-.62,5.7-1.13,8.02-2.29,2.09-1.06,3.82-2.79,3.49-4.69-.12-.93-.68-1.88-1.46-2.68-.77-.8-1.76-1.43-2.84-2.06-1.39-.8-2.95-1.56-4.39-2.76-1.41-1.14-2.69-3.02-2.83-4.99-.23-1.95,.27-3.86,1.22-5.46,1-1.55,2.44-2.88,4.2-3.43,.54-.19,.95-.21,1.21-.2,.26,0,.38,.05,.37,.13,0,.08-.13,.19-.34,.34-.21,.14-.52,.31-.85,.6-.68,.52-1.47,1.41-1.97,2.63-.5,1.21-.75,2.68-.69,4.08,.03,.63,.21,1.19,.4,1.71,.14,.24,.2,.51,.38,.71l.22,.33c.1,.11,.19,.23,.3,.34,.85,.9,2.11,1.63,3.6,2.43,.74,.4,1.53,.83,2.33,1.36,.8,.51,1.65,1.17,2.37,1.95,.73,.78,1.39,1.7,1.84,2.83,.46,1.11,.64,2.46,.42,3.73-.2,1.28-.81,2.45-1.52,3.34-.72,.9-1.54,1.59-2.37,2.17-.81,.56-1.73,1.06-2.63,1.44-.9,.38-1.78,.67-2.64,.92-3.46,1-6.83,1.4-10.02,2.15-1.89,.44-3.77,1-5.3,1.88-.76,.44-1.41,.95-1.87,1.53-.2,.29-.43,.61-.52,.92-.05,.15-.11,.31-.16,.46,0,.15-.02,.3-.05,.45,0,.59,.2,1.25,.63,1.95,.49,.68,1.06,1.38,1.79,2.01,1.4,1.3,3.12,2.4,4.83,3.47,3.81,2.38,7.9,4.43,11.81,7.17,.98,.68,1.93,1.46,2.86,2.32,.89,.91,1.81,1.94,2.35,3.43,.27,.74,.37,1.61,.25,2.44-.1,.4-.14,.85-.32,1.19-.17,.35-.34,.72-.53,1.05-.43,.57-.87,1.17-1.38,1.58-.26,.23-.47,.46-.76,.67-.3,.22-.6,.43-.92,.6-1.59,.87-3.28,1.08-4.84,1.1-1.56-.01-3.05-.23-4.47-.49-2.83-.52-5.58-1.2-8.31-1.8-4.12-.9-8.25-1.65-12.29-1.37-1.01,.06-2,.21-2.98,.42-.97,.19-1.69,.51-2.13,.99-.43,.45-.52,1.12-.38,1.93,.16,.8,.58,1.65,1.11,2.44,1.68,2.48,4.25,4.44,6.9,6.05,2.68,1.61,5.57,2.87,8.54,3.91,1.31,.46,2.63,.8,3.96,1.25,4.99,1.44,6.57,2.12,7.59,3.04,.23,.22,.55,.44,.67,.62,.21,.31-.23,.49-1.25,.6-1.01,.11-2.6,.14-4.61-.08-.74-.1-1.49-.21-2.23-.35-.75-.12-1.49-.27-2.24-.44-1.5-.32-2.96-.8-4.44-1.3-2.94-1.01-5.84-2.35-8.61-4.05-2.74-1.76-5.42-3.77-7.57-6.79-.53-.76-1.02-1.61-1.42-2.58-.37-1-.69-2.14-.6-3.53,.07-1.38,.81-2.97,1.89-3.92,1.06-.97,2.22-1.44,3.26-1.73,5.18-1.32,10.25-.76,14.9,.09,2.33,.44,4.6,.96,6.81,1.45,1.11,.24,2.2,.47,3.29,.68,1.1,.21,2.15,.39,3.14,.47v.11Z"/>
  <path class="cls-1" d="M235.08,278.15c-2.69-3.78-5.53-7.48-8.54-11.02l-.84-.95-.78-.84c-.22-.19-.58-.48-.88-.72l-.96-.76c-4.62-3.56-9.88-6.49-15.38-8.77-1.23-.5-2.46-.99-3.73-1.38-1.26-.43-2.52-.82-3.8-1.14-3.25-.94-6.62-1.34-9.82-2.65-.99-.48-.8-.77,.2-1.21,1.01-.53,2.83-1.03,4.82-.67,6.98,1.4,13.79,3.85,20.08,7.36,3.74,2.15,7.68,4.24,11.17,7.12l.36,.31c.11,.09,.37,.35,.43,.42l.61,.67,1.19,1.35c.78,.91,1.56,1.81,2.31,2.74,1.52,1.84,3.01,3.71,4.44,5.62,1.78,2.33,3.49,4.73,5.14,7.15,2.48,3.7,4.82,7.51,6.95,11.39,.82,1.52,1.64,3.02,2.45,4.52,.36,.77,.76,1.54,1.09,2.33,.35,.78,.7,1.56,.95,2.39,.24,.72,.51,1.42,.73,2.15,.23,.67,.34,1.26,.41,1.76,.07,.49,.11,.9,.12,1.23,0,.34-.02,.61-.09,.84-.08,.24-.2,.43-.32,.61-.11,.16-.2,.36-.29,.45-.25,.31-1.18-.66-1.82-2.5-.23-.69-.56-1.36-.89-2.03-.32-.67-.64-1.34-.96-2.02-.32-.67-.73-1.32-1.08-1.99-.36-.66-.66-1.36-1-2.03-.74-1.33-1.42-2.7-2.18-4.05-.8-1.33-1.52-2.7-2.36-4.01-2.39-3.96-5.06-7.81-7.8-11.6l.07-.06Z"/>
  <path class="cls-1" d="M364.29,377.43c2.39,.17,4.78,.31,7.17,.42,.87,.04,1.74-.03,2.62,.02l4.62,.24c1.54,.1,3.09,.2,4.63,.27,1.37,.06,2.74,.04,4.1,.02,1.74,0,3.5,.14,5.25,.43,.54,.1,.47,.31,.01,.63-.46,.3-1.3,.79-2.29,1.02-.88,.18-1.77,.39-2.65,.52-.89,.06-1.77,.12-2.66,.16-1.78,.08-3.56,.1-5.36,0-2.15-.13-4.38,.07-6.58,.09-2.42,.02-4.84-.02-7.26-.06l-4.47-.09c-2.25-.05-4.52-.19-6.76-.17-1.74,.03-3.45,.22-5.18,.32-.38,.03-.75,.01-1.13-.02-1.42-.15-1.86-.44-2.13-1.25-.06-.18-.15-.37-.18-.54-.11-.59,.48-1.1,1.52-1.39,.77-.18,1.55-.47,2.33-.54,.78-.1,1.57-.18,2.37-.23,1.59-.12,3.2-.11,4.81-.12,1.2,.01,2.4,.03,3.6,.04l3.61,.15v.09Z"/>
  <path class="cls-1" d="M81.39,393.29l-7.51,.09c-.92,0-1.83,.08-2.75,.05-3.25-.11-6.5-.24-9.74-.63-1.43-.14-2.87-.28-4.29-.41-1.83-.1-3.64-.58-5.39-1.11-.55-.17-.44-.32,.07-.5,.51-.17,1.44-.47,2.49-.53,1.87-.21,3.66,.01,5.49,0,1.82,.06,3.65,.05,5.49,.2,2.2,.19,4.5-.1,6.77-.21,2.49-.14,5-.19,7.52-.3l4.66-.17c2.36-.06,4.73-.12,7.07-.18,1.82-.04,3.62-.25,5.43-.28,.4,0,.79,0,1.19,.03,1.49,.14,1.95,.41,2.21,1.18,.06,.18,.14,.35,.17,.52,.1,.57-.54,1.03-1.61,1.24-.8,.14-1.6,.29-2.41,.43-.81,.1-1.62,.17-2.43,.23-1.63,.17-3.28,.24-4.94,.26-2.47,.04-4.97,.08-7.47,.17v-.09Z"/>
  <path class="cls-1" d="M361.22,390.03c1.01,.11,2.03,.21,3.05,.29,.37,.03,.74-.02,1.11,.01l1.97,.2c.66,.07,1.32,.2,1.98,.27,.59,.08,1.17,.07,1.75,.14,.75,.06,1.5,.14,2.23,.38,.23,.08,.19,.27-.02,.5-.2,.23-.57,.57-.99,.69-.75,.17-1.49,.44-2.24,.48-.74,.05-1.5,.05-2.25-.03-.91-.15-1.85,0-2.79,0-1.03,0-2.05-.05-3.08-.08l-1.9-.08c-.96-.04-1.92-.12-2.87-.08-.74,.01-1.46,.27-2.2,.3-.16,.01-.32,.05-.48,.04-.6-.02-.79-.21-.92-.86-.03-.15-.07-.29-.08-.44-.05-.49,.19-.91,.63-1.11,1.3-.66,2.66-.72,4.03-.75,1.02-.01,2.04,0,3.06,.05v.07Z"/>
  <g class="cls-2">
    <path class="cls-1" d="M177.53,271.83c-.75-.19-1.3-.57-1.78-.95-.15-.12-.06-.31,.16-.29,.47,.04,.92,.07,1.31,.11,.14,0,1.23,.22,2.49,.33,1.25,.14,2.66,.2,3.36,.29,1.36,.14,2.73,.26,4.08,.44,1.39,.12,2.76,.28,4.15,.35,.7,.03,1.38,.13,2.07,.19l2.08,.18c.61,.06,1.23,.13,1.84,.24,2.09,.37,4.22,.51,6.35,.52,.35,0,.72,.04,1.06-.06,.57-.13,6.34-.04,7.09,.03,1.86,.24,3.72,.32,5.59,.55,.27,.04,.55,.02,.79,.16,.57,.33,1.14,.3,1.72,.34,.8,.06,1.61,.13,2.41,.24,.4,.07,.79,.23,1.18,.34,.36,.1,.17,.41,.04,.45-.36,.11-.06,.26-.03,.4,.01,.05,.03,.1,.01,.14,0,.02-.3,.09-.75,.21-.44,.12-1.04,.24-1.65,.37-1.22,.26-2.5,.55-2.76,.57-.12,.19-6.9,.3-7.67,.34-.4,.02-.81-.06-1.21-.12-.19,0-5.63,.04-5.85,0-1.12-.09-2.26-.05-3.37-.39-.22-.07-.45-.07-.67-.08-1.94-.1-3.87-.37-5.79-.65-.98-.14-1.98-.2-2.96-.39-.18-.03-.35-.1-.52-.14-.22-.06-.44-.13-.66-.16-2.32-.41-4.61-.98-6.91-1.48-.26-.07-1.02-.28-1.76-.58-.74-.31-1.49-.61-1.79-.7-.33-.11-1.35-.7-1.65-.77Z"/>
  </g>
  <g class="cls-2">
    <path class="cls-1" d="M274,273.57c-.46,0-.83-.2-1.15-.41-.1-.07-.07-.23,.06-.26,.29-.06,.56-.11,.78-.16,.08-.02,.75-.06,1.5-.17,.76-.11,1.59-.24,2.02-.34,.82-.18,1.63-.35,2.44-.38,1.65-.1,3.29-.3,4.93-.5,.36-.05,.73-.07,1.1-.05,1.26,.1,2.52-.02,3.77-.22,.21-.04,.43-.04,.62-.17,.31-.21,3.73-.67,4.19-.64,1.13,.1,2.25,.02,3.4,.17,.16,.01,.33-.04,.49,.09,.37,.29,.71,.21,1.06,.21,.48,0,.97,.02,1.46,.09,.24,.03,.49,.18,.74,.29,.22,.1,.14,.53,.07,.58-.2,.15-.01,.34,.02,.51,.01,.06,.03,.13,.02,.18-.02,.08-2.66,1.21-2.95,1.28-.04-.02-1.03,.28-2.09,.42-1.06,.17-2.16,.35-2.39,.4-.23,.05-.48,0-.73-.02-.12,.02-3.32,.5-3.45,.52-.67,.02-1.34,.17-2.03-.04-.14-.04-.27-.02-.41,0-1.16,.13-2.33,.05-3.5-.03-.6-.04-1.19,0-1.79-.03-.11,0-.22-.04-.32-.06-.14-.02-.27-.06-.41-.06-1.41-.02-2.81-.17-4.21-.36-.32-.03-1.84-.48-2.21-.51-.21-.03-.87-.33-1.05-.32Z"/>
  </g>
  <g class="cls-2">
    <path class="cls-1" d="M165.33,290.95c-.9-.27-1.54-.81-2.1-1.3-.18-.16-.06-.39,.22-.37,.53,.05,1.07,.08,1.61,.12,.17,0,1.51,.26,3.05,.38,.75,.13,1.55,.26,2.26,.38,.72,.09,1.35,.16,1.78,.21,1.65,.21,3.31,.36,4.94,.64,3.31,.58,6.65,1.04,10.02,1.35,.75,.08,1.49,.19,2.23,.32,2.54,.46,5.13,.65,7.72,.7,.43,0,.87,.05,1.29-.06,.69-.14,7.72,0,8.63,.1,2.26,.28,4.54,.4,6.81,.65,.32,.03,.67-.01,.97,.14,.69,.35,1.39,.3,2.09,.34,.98,.05,1.96,.21,2.93,.35,.48,.08,.96,.27,1.44,.4,.43,.13,.2,.51,.05,.55-.44,.13-.08,.32-.04,.48,.01,.06,.03,.13,.01,.17-.01,.03-.37,.1-.91,.22-.55,.12-1.28,.28-2.01,.45-.74,.19-1.51,.32-2.12,.41-.62,.09-1.08,.15-1.24,.15-.04,0-.58,.03-1.39,.06-.81,.04-1.88,.08-2.98,.11-2.2,.05-4.49,.09-4.97,.1-.49,.02-.98-.07-1.47-.14-.23,0-6.86,0-7.12-.04-1.37-.1-2.76-.08-4.1-.48-.26-.08-.54-.08-.82-.1-2.36-.15-4.71-.49-7.05-.86-1.2-.17-2.4-.33-3.6-.5-.22-.03-.43-.11-.64-.16-.27-.06-.53-.15-.81-.2-1.42-.24-2.83-.47-4.23-.81-1.39-.36-2.78-.72-4.18-1.08-.32-.09-1.23-.4-2.13-.76-.9-.37-1.82-.72-2.18-.82-.4-.15-1.59-1.02-1.95-1.12Z"/>
  </g>
  <g class="cls-2">
    <path class="cls-1" d="M140.88,307.09c-.44-.16-.66-.55-.78-1.01-.04-.15,.14-.42,.28-.4,.27,.03,.55,.06,.81,.1,.15,.06,2.53,.8,3.38,.89,.8,.16,1.6,.32,2.37,.52,1.55,.49,3.1,.93,4.69,1.28,.35,.09,.69,.2,1.03,.34,1.15,.49,2.36,.76,3.59,.96,.2,.03,.41,.1,.63,.02,.36-.1,3.67,.47,4.09,.61,1.04,.4,2.1,.69,3.16,1.01,.15,.05,.32,.02,.45,.18,.29,.39,.63,.39,.96,.47,.46,.12,.93,.23,1.38,.4,.23,.08,.44,.29,.66,.46,.2,.15,.05,.59-.03,.63-.23,.12-.07,.36-.07,.55,0,.06,0,.15-.01,.2-.02,.09-2.89,.82-3.21,.81-.04,0-1.08-.07-2.17-.14-1.09-.09-2.23-.18-2.47-.2-.25,0-.47-.13-.71-.22-.11-.02-3.39-.4-3.52-.46-.66-.19-1.36-.21-1.95-.69-.11-.09-.25-.12-.39-.15-1.14-.29-2.23-.76-3.32-1.21-.57-.21-1.13-.41-1.69-.62-.1-.04-.19-.11-.29-.17-.12-.07-.24-.15-.36-.2-.66-.27-1.33-.52-1.95-.87-.63-.35-1.26-.68-1.89-1-.3-.14-1.54-1.15-1.87-1.33-.19-.1-.64-.71-.81-.77Z"/>
  </g>
  <g class="cls-2">
    <path class="cls-1" d="M129.37,332.19c-.39-.13-.58-.49-.65-.94-.02-.15,.16-.43,.29-.42,.24,.02,.49,.03,.73,.06,.14,.05,2.19,.72,2.93,.82,.7,.15,1.38,.31,2.05,.5,.68,.19,1.38,.32,2.06,.51,.67,.19,1.35,.38,2.03,.54,.3,.08,.59,.19,.88,.31,.99,.45,2.04,.68,3.11,.79,.18,.02,.36,.07,.55-.02,.15-.06,.95-.01,1.75,.09,.8,.12,1.6,.24,1.78,.31,.9,.32,1.83,.54,2.76,.75,.13,.04,.28,.02,.4,.16,.28,.32,.57,.29,.86,.34,.41,.07,.82,.13,1.23,.23,.2,.05,.41,.2,.61,.31,.19,.1,.1,.46,.04,.5-.18,.12-.03,.29,0,.43,0,.05,.02,.12,.01,.16,0,.07-2.46,.97-2.75,1-.07,.12-3.72,.14-4.14,.13-.22,.01-.43-.08-.64-.15-.05-.02-.81-.01-1.56-.1-.76-.06-1.51-.18-1.57-.19-.59-.15-1.2-.19-1.73-.6-.1-.08-.23-.09-.34-.12-1.01-.22-1.99-.61-2.95-.99-.51-.17-1-.35-1.5-.52-.09-.03-.17-.1-.25-.15-.11-.05-.2-.15-.31-.19-1.15-.51-2.23-1.16-3.35-1.7-.26-.12-1.35-1.01-1.64-1.16-.17-.08-.55-.64-.7-.69Z"/>
  </g>
  <g class="cls-2">
    <path class="cls-1" d="M119,368.16c-.32,.26-.72,.18-1.17-.03-.14-.07-.3-.4-.22-.5,.15-.2,.31-.41,.47-.6,.1-.12,1.99-1.47,2.65-1.95,.32-.23,.64-.44,.97-.64,.33-.19,.69-.32,1.04-.47,1.43-.59,2.88-1.12,4.35-1.6,.33-.1,.66-.17,1.01-.21,1.17-.13,2.31-.39,3.44-.69,.19-.05,.39-.08,.55-.22,.27-.25,3.38-.87,3.81-.78,1.05,.13,2.07,.11,3.1,.29,.15,.02,.3-.01,.44,.11,.33,.28,.64,.22,.95,.25,.44,.02,.87,.06,1.31,.14,.22,.04,.44,.16,.65,.26,.2,.08,.11,.41,.05,.45-.18,.12-.02,.26,0,.39,0,.05,.02,.1,.01,.14,0,.04-.6,.28-1.22,.57-.62,.29-1.26,.61-1.38,.64-.06,.08-3.48,.9-3.86,1.03-.2,.06-.42,.02-.63,0-.1-.02-2.8,.69-2.91,.73-.57,.08-1.11,.29-1.73,.15-.12-.03-.23,.01-.34,.04-.96,.23-1.95,.34-2.93,.51-.5,.1-.98,.24-1.47,.38-.09,.02-.19,.01-.28,.02-.12,.01-.24,0-.35,.04-1.15,.33-2.31,.65-3.44,1.03-.27,.07-1.61,.27-1.91,.41-.17,.06-.84,0-.97,.12Z"/>
  </g>
  <g class="cls-2">
    <path class="cls-1" d="M159.78,378.37c.37-.27,.81-.05,1.25,.43,.14,.15,.26,.7,.17,.82-.17,.22-.33,.44-.5,.62-.13,.06-1.9,1.2-2.39,1.72-.51,.45-1.03,.88-1.56,1.29-1.06,.84-2.1,1.72-3.05,2.69-.21,.22-.44,.42-.7,.59-.89,.59-1.58,1.4-2.15,2.3-.1,.15-.22,.28-.22,.49,.03,.37-1.56,2.69-1.8,2.98-.68,.67-1.22,1.43-1.79,2.21-.08,.11-.1,.26-.28,.32-.42,.14-.49,.43-.63,.69-.21,.36-.36,.73-.6,1.09-.12,.18-.34,.32-.54,.48-.18,.14-.56-.06-.59-.14-.08-.22-.32-.13-.5-.16-.06-.01-.14-.02-.19-.05-.05-.02-.1-.69-.13-1.42-.04-.73,0-1.49,.04-1.63,0-.02,.06-.27,.16-.63,.12-.36,.28-.83,.45-1.32,.35-.97,.77-1.96,.84-2.17,.08-.22,.27-.38,.42-.55,.05-.03,.33-.79,.75-1.48,.4-.7,.83-1.38,.88-1.42,.44-.47,.73-1.08,1.4-1.34,.13-.05,.2-.16,.28-.26,.34-.43,.74-.81,1.16-1.17,.41-.37,.84-.71,1.29-1.04,.44-.34,.84-.74,1.3-1.07,.08-.06,.19-.09,.28-.13,.12-.06,.24-.1,.34-.18,1.05-.83,2.31-1.31,3.46-1.98,.27-.16,1.75-.43,2.07-.56,.18-.08,.92,.1,1.07,0Z"/>
  </g>
  <g class="cls-2">
    <path class="cls-1" d="M182.33,324.42c-.72-.12-1.23-.55-1.66-1-.14-.15-.03-.43,.18-.44,.45-.02,.89-.04,1.26-.06,.13-.01,1.18,.1,2.38,.11,.3,.01,.61,0,.91,.02,.3,.03,.59,.06,.87,.09,.56,.04,1.05,.08,1.39,.1,1.29,.09,2.56,.22,3.84,.37,.64,.09,1.3,.12,1.94,.19,.65,.07,1.29,.17,1.94,.21,1.29,.12,2.59,.24,3.88,.31,.58,.04,1.15,.12,1.72,.2,1.96,.31,3.95,.38,5.94,.3,.33-.01,.67,0,.99-.11,.26-.08,1.73-.18,3.22-.26,1.49-.1,3-.19,3.35-.17,1.74,.07,3.47-.02,5.23,.05,.25,0,.51-.06,.75,.04,.56,.23,1.09,.12,1.63,.08,.75-.06,1.5-.08,2.27-.08,.38,0,.77,.08,1.15,.13,.35,.04,.22,.35,.11,.4-.32,.16-.02,.25,.04,.36,.02,.04,.04,.09,.03,.13,0,.02-.27,.13-.67,.3-.41,.18-.94,.41-1.48,.65-1.1,.45-2.28,.84-2.52,.9-.03,0-.44,.12-1.06,.24-.62,.12-1.44,.35-2.3,.46-1.71,.22-3.49,.45-3.86,.5-.38,.05-.77,0-1.16-.01-.18,.05-5.34,.43-5.55,.39-1.07-.02-2.15,.06-3.21-.23-.21-.06-.43-.05-.64-.05-1.84-.03-3.68-.24-5.5-.47-.94-.1-1.87-.19-2.8-.28-.17-.02-.33-.08-.5-.11-.21-.05-.42-.11-.63-.14-1.1-.12-2.2-.34-3.28-.57-1.09-.22-2.18-.44-3.27-.64-.51-.08-2.83-.87-3.38-1.1-.32-.09-1.26-.76-1.55-.8Z"/>
  </g>
  <g class="cls-2">
    <path class="cls-1" d="M181.62,349.87c-.8-.1-1.41-.46-1.95-.82-.17-.12-.1-.34,.13-.35,.49-.03,.97-.05,1.38-.08,.17,0,1.33,.02,2.66,.04,1.34,0,2.83-.05,3.57,0,1.45,.04,2.89,.17,4.32,.29,2.91,.25,5.82,.41,8.71,.63,.64,.04,1.28,.13,1.92,.23,2.18,.36,4.39,.47,6.59,.41,.37-.01,.74,.01,1.1-.11,.29-.09,1.93-.19,3.59-.24,1.66-.09,3.34-.14,3.73-.13,.96,.04,1.93,.13,2.9,.18,.97,.04,1.94,.07,2.92,.11,.28,0,.57-.07,.83,.06,.62,.3,1.21,.19,1.81,.16,.83-.06,1.68-.04,2.52,.02,.42,.03,.85,.17,1.27,.26,.38,.09,.24,.51,.12,.58-.36,.18-.03,.34,.03,.51,.02,.06,.04,.13,.03,.18-.01,.05-1.19,.48-2.43,.97-1.24,.46-2.57,.8-2.83,.84-.03,0-.5,.08-1.19,.19-.7,.1-1.62,.24-2.56,.37-1.89,.3-3.89,.42-4.29,.48-.42,.05-.86-.03-1.29-.08-.2,.02-5.94,.3-6.18,.24-1.19-.06-2.39,0-3.56-.37-.23-.07-.47-.07-.71-.08-2.04-.09-4.06-.38-6.08-.67-1.03-.17-2.06-.22-3.09-.39-.18-.03-.36-.1-.55-.15-.23-.06-.46-.14-.69-.17-2.43-.36-4.81-.94-7.22-1.3-.57-.03-3.12-1-3.75-1.13-.35-.09-1.45-.66-1.77-.69Z"/>
  </g>
  <g class="cls-2">
    <path class="cls-1" d="M305.19,304.39c-.22,.11-.44-.1-.64-.44-.07-.11-.09-.45-.03-.51,.12-.12,.24-.23,.36-.33,.08-.05,1.32-.52,1.74-.73,.4-.2,.82-.33,1.23-.44,.84-.26,1.68-.43,2.53-.58,.19-.03,.38-.04,.57,0,.66,.1,1.31,.02,1.95-.15,.11-.03,.22-.02,.31-.15,.08-.11,.55-.23,1.04-.33,.48-.11,.99-.05,1.11-.03,.59,.2,1.17,.31,1.76,.45,.08,.02,.17-.03,.25,.1,.2,.29,.37,.23,.55,.24,.25,0,.5,.08,.75,.18,.13,.05,.26,.21,.39,.33,.12,.11,.09,.5,.06,.55-.1,.14,0,.32,.03,.48,0,.05,.02,.13,.02,.17,0,.05-.33,.32-.68,.62-.35,.28-.72,.5-.79,.52-.02,0-.53,.14-1.07,.28-.54,.15-1.09,.31-1.21,.35-.12,.05-.25,0-.37-.04-.06,0-1.68,.3-1.74,.29-.34-.03-.67,.09-1.04-.16-.07-.05-.14-.03-.21-.03-.58,.06-1.18-.02-1.77-.07-.3-.02-.6,.02-.9,.03-.05,0-.11-.03-.17-.05-.07-.01-.14-.05-.21-.05-.71,0-1.43-.15-2.14-.09-.16,0-.96-.23-1.15-.2-.1,0-.47-.26-.56-.22Z"/>
  </g>
  <g class="cls-2">
    <path class="cls-1" d="M320.12,354.51c-.2,.06-.3-.21-.33-.64-.01-.14,.09-.52,.15-.57,.12-.09,.24-.19,.36-.25,.07-.03,1.06-.16,1.39-.27,.32-.09,.63-.12,.94-.13,.62-.03,1.24-.11,1.85-.21,.14-.02,.27,0,.4,.06,.46,.19,.93,.17,1.38,.06,.08-.02,.16,0,.22-.13,.06-.09,.39-.19,.73-.25,.34,0,.7,.02,.79,.06,.43,.22,.85,.29,1.29,.45,.06,.03,.12,0,.2,.11,.18,.27,.3,.22,.44,.24,.19,.03,.38,.06,.58,.12,.1,.03,.22,.14,.33,.22,.1,.07,.13,.37,.11,.41-.06,.11,.04,.24,.08,.36,.01,.04,.03,.09,.03,.13,.01,.04-.91,1.08-1.04,1.17,0,.11-1.62,.69-1.81,.79-.1,.05-.2,0-.31-.02-.04,.07-1.39,.32-1.45,.3-.28-.03-.57,.06-.85-.21-.06-.05-.11-.04-.17-.04-.48,.02-.96-.11-1.43-.27-.24-.07-.48-.09-.72-.14-.04,0-.08-.05-.13-.08-.05-.03-.1-.07-.16-.08-.57-.1-1.11-.34-1.67-.41-.13-.02-.69-.42-.84-.43-.08-.01-.28-.38-.36-.35Z"/>
  </g>
  <g class="cls-2">
    <path class="cls-1" d="M306.92,392.98c-.56,.06-1.04-.36-1.24-.88-.07-.16,.13-.5,.26-.53,.26-.03,.52-.11,.78-.17,.08-.02,.72-.06,1.47-.27,.75-.19,1.56-.53,1.97-.72,.84-.32,1.61-.62,2.39-.92,1.62-.63,3.18-1.44,4.65-2.35,.33-.2,.66-.38,1.03-.51,1.24-.46,2.35-1.21,3.29-2.1,.15-.15,.33-.28,.41-.51,.06-.19,.73-.86,1.33-1.58,.62-.7,1.16-1.44,1.32-1.59,.8-.72,1.4-1.59,1.98-2.5,.08-.13,.09-.29,.3-.37,.49-.19,.48-.55,.62-.86,.16-.45,.29-.91,.47-1.37,.12-.23,.36-.46,.54-.7,.16-.22,.55-.1,.6-.02,.13,.24,.35,.05,.52,.03,.06,0,.14-.02,.19,0,.03,0,.12,.21,.26,.54,.06,.16,.17,.36,.21,.57,.04,.22,.07,.44,.11,.67,.08,.47,.12,.96,.12,1.36,.01,.4,0,.71-.03,.8,0,.02-.08,.36-.2,.86-.14,.49-.38,1.13-.67,1.75-.56,1.27-1.37,2.43-1.51,2.68-.15,.27-.42,.44-.65,.63-.05,.05-.68,.88-1.38,1.63-.7,.76-1.46,1.45-1.52,1.5-.66,.47-1.25,1.06-2.09,1.24-.16,.04-.29,.14-.42,.23-1.12,.8-2.39,1.33-3.66,1.79-.64,.25-1.27,.53-1.92,.76-.12,.04-.25,.04-.37,.07-.16,.03-.32,.05-.46,.1-1.53,.54-3.13,.82-4.73,1.18-.37,.1-2.22-.07-2.67-.08-.25,.01-1.06-.38-1.28-.37Z"/>
  </g>
  <g class="cls-2">
    <path class="cls-1" d="M285.75,375.79c-.37,.19-.75-.07-1.1-.56-.11-.15-.16-.66-.07-.76,.18-.19,.37-.37,.55-.53,.13-.06,2-.92,2.55-1.38,.57-.34,1.16-.58,1.75-.83,1.19-.52,2.34-1.13,3.43-1.83,.24-.15,.51-.27,.78-.38,.96-.33,1.74-.96,2.51-1.59,.12-.11,.27-.2,.32-.39,.05-.15,.58-.65,1.13-1.15,.54-.51,1.1-1.02,1.25-1.11,.76-.47,1.45-1.03,2.18-1.59,.11-.08,.15-.21,.33-.23,.4-.04,.53-.29,.72-.5,.27-.28,.51-.59,.8-.86,.14-.14,.38-.22,.58-.33,.19-.09,.46,.17,.47,.24,.01,.22,.24,.18,.39,.24,.05,.02,.11,.05,.15,.08,.04,.03-.09,.65-.23,1.32-.15,.66-.36,1.35-.42,1.47-.01,.01-.11,.24-.29,.54-.18,.31-.41,.72-.66,1.14-.55,.79-1.15,1.62-1.28,1.79-.12,.18-.33,.29-.51,.41-.04,.09-1.99,2.29-2.12,2.34-.47,.38-.89,.85-1.57,.93-.13,.02-.22,.1-.32,.17-.85,.6-1.81,1.02-2.76,1.43-.48,.23-.95,.45-1.43,.68-.09,.04-.19,.04-.28,.06-.12,.03-.25,.03-.36,.08-1.14,.49-2.35,.78-3.52,1.19-.28,.09-1.69,0-2,.08-.18,.05-.84-.27-.98-.2Z"/>
  </g>
  <g class="cls-2">
    <path class="cls-1" d="M267.07,349.35c-.45,.19-.87-.1-1.25-.62-.12-.17-.15-.7-.03-.8,.23-.18,.47-.37,.71-.51,.15-.06,2.5-.82,3.26-1.2,.74-.32,1.49-.61,2.24-.84,1.53-.46,3.05-.95,4.53-1.53,.33-.12,.67-.23,1.02-.29,.6-.11,1.19-.28,1.74-.52,.56-.22,1.1-.5,1.61-.82,.17-.1,.36-.18,.48-.38,.1-.15,.83-.66,1.59-1.13,.73-.51,1.53-.92,1.72-1.01,.49-.19,.97-.4,1.45-.63,.46-.25,.9-.52,1.42-.72,.15-.06,.23-.2,.44-.17,.47,.04,.69-.21,.96-.4,.39-.25,.73-.56,1.14-.8,.2-.12,.48-.18,.73-.27,.23-.08,.43,.23,.41,.31-.05,.24,.2,.22,.33,.3,.04,.03,.1,.06,.13,.1,.02,.03-.24,.74-.55,1.5-.33,.74-.73,1.5-.83,1.63-.02,0-.18,.26-.45,.58-.26,.34-.67,.73-1.08,1.13-.85,.77-1.76,1.57-1.96,1.72-.19,.17-.45,.25-.69,.34-.07,.11-2.95,1.98-3.1,2-.65,.28-1.24,.69-2.02,.67-.15,0-.27,.07-.4,.13-1.09,.5-2.26,.81-3.42,1.09-.59,.18-1.17,.35-1.75,.53-.11,.03-.22,.02-.33,.03-.14,.01-.28,.01-.41,.05-1.38,.42-2.83,.48-4.23,.78-.33,.07-1.93-.06-2.3,0-.21,.04-.94-.3-1.12-.23Z"/>
  </g>
  <g class="cls-2">
    <path class="cls-1" d="M251.69,325.23c-.54-.01-.94-.36-1.25-.81-.1-.14,0-.5,.16-.54,.31-.07,.62-.15,.93-.2,.1-.03,.86,.01,1.72-.08,.86-.08,1.81-.19,2.28-.24,.46-.06,.92-.09,1.37-.12,.46-.05,.91-.08,1.36-.11,1.84-.14,3.66-.45,5.43-.91,.39-.1,.8-.15,1.2-.18,1.4-.08,2.77-.44,4.07-.98,.22-.09,.45-.15,.62-.35,.14-.15,1.09-.59,2.05-1.02,.96-.45,1.93-.9,2.17-.96,.6-.17,1.19-.37,1.78-.57,.57-.24,1.16-.45,1.78-.63,.17-.05,.31-.2,.53-.14,.52,.12,.82-.13,1.17-.3,.49-.23,.97-.49,1.49-.68,.26-.1,.59-.08,.9-.11,.28-.02,.46,.46,.42,.55-.12,.27,.19,.35,.33,.51,.05,.05,.11,.12,.13,.18,.07,.11-2.1,2.77-2.43,2.96-.02,0-.27,.22-.66,.49-.38,.28-.9,.65-1.46,.99-1.12,.66-2.3,1.34-2.55,1.47-.25,.15-.56,.19-.84,.26-.1,.1-3.69,1.72-3.86,1.72-.78,.23-1.55,.55-2.41,.47-.17-.02-.32,.04-.48,.09-.68,.18-1.37,.31-2.06,.42-.7,.08-1.4,.1-2.1,.16-.71,.03-1.42,.11-2.13,.16-.13,.01-.26-.03-.39-.04-.16-.02-.33-.06-.49-.05-.84,.03-1.68,.02-2.51-.05-.83-.05-1.65-.1-2.5-.15-.19-.03-.74-.08-1.28-.29-.54-.18-1.09-.35-1.31-.38-.25-.03-.97-.55-1.19-.54Z"/>
  </g>
  <path class="cls-1" d="M172.61,346.77c.47-2.23,.88-4.48,1.25-6.74,.12-.83,.17-1.66,.32-2.48,.5-2.91,.99-5.83,1.3-8.77,.13-1.31,.24-2.62,.31-3.92,.06-1.67,.25-3.34,.57-5.02,.11-.52,.39-.45,.75,0,.35,.44,.87,1.27,1.07,2.25l.21,1.3,.1,.65,.04,.65c.05,.87,.06,1.74,.06,2.61,0,.87-.15,1.73-.24,2.6-.11,.87-.25,1.73-.42,2.59-.39,2.06-.44,4.24-.74,6.36-.33,2.33-.8,4.64-1.26,6.94-.31,1.42-.6,2.83-.94,4.24-.48,2.14-1.08,4.26-1.64,6.36-.41,1.64-.77,3.27-1.33,4.86-.12,.35-.21,.7-.35,1.05-.59,1.27-.99,1.58-1.48,1.69-.12,.02-.24,.07-.34,.07-.33,0-.39-.63-.29-1.64,.22-1.47,.51-2.93,.72-4.44,.3-1.48,.61-2.98,.91-4.48,.41-2.24,.97-4.47,1.35-6.74h.08Z"/>
  <g>
    <path class="cls-1" d="M253.36,103.97c-2.75,.54-5.48,1.14-8.2,1.83-.99,.25-1.95,.6-2.94,.86-3.47,.97-6.93,2.02-10.32,3.28-1.5,.58-3,1.17-4.45,1.83-.94,.41-1.85,.88-2.8,1.26-.96,.37-1.94,.7-2.92,1.02-.62,.19-.62,0-.24-.47,.38-.46,1.08-1.3,2.06-2.02,3.66-2.16,7.61-3.74,11.71-4.97,1.23-.36,2.45-.8,3.69-1.21,1.24-.43,2.48-.85,3.74-1.22,2.75-.82,5.54-1.51,8.33-2.13,1.73-.36,3.46-.71,5.19-1.03,2.62-.5,5.28-.87,7.88-1.31,2.03-.33,4.02-.68,6.03-.95,.44-.06,.88-.14,1.33-.17,1.67-.08,2.22,.03,2.62,.41,.09,.09,.21,.17,.26,.25,.19,.28-.46,.63-1.65,.96-3.53,.92-7.24,1.66-10.98,2.25-2.77,.48-5.56,.96-8.32,1.57l-.02-.06Z"/>
    <path class="cls-1" d="M236.43,95.04c2.5-1.73,5.04-3.41,7.7-4.87l1.43-.84c.49-.27,.97-.53,1.47-.78,3.47-1.78,7.07-3.28,10.75-4.52,1.61-.59,3.27-1.11,4.9-1.59,1.06-.27,2.12-.55,3.19-.83,1.08-.21,2.17-.37,3.25-.54,.68-.1,.6-.02,.07,.24-.53,.25-1.49,.78-2.66,1.24l-3.11,1.16c-1.04,.38-2.04,.85-3.1,1.16-2.08,.72-4.15,1.47-6.22,2.29-2.49,.93-4.92,2.27-7.31,3.56-2.6,1.46-5.17,3-7.61,4.73-1.52,1.03-2.98,2.17-4.43,3.31-1.08,.89-2.16,1.78-3.22,2.69-1.02,.95-2.08,1.87-3.04,2.87-.75,.78-1.47,1.56-2.18,2.36l-2.07,2.43c-.31,.35-.58,.72-.89,1.09-1.16,1.31-1.62,1.66-2.11,1.76-.11,.02-.24,.06-.33,.06-.29-.01,0-.7,.69-1.82,1-1.68,2.28-3.21,3.53-4.81,1.35-1.51,2.73-3.04,4.22-4.46,1.07-1.09,2.25-2.08,3.4-3.1,1.17-.99,2.42-1.9,3.64-2.83l.03,.04Z"/>
    <path class="cls-1" d="M237.51,87.33c-5.09-1.59-16.61,1.99-19.71,7.47,0,0,2.6-4.8,7.28-7.83,9.5-6.15,12.43,.37,12.43,.37Z"/>
    <path class="cls-1" d="M194.23,110.19s12.74,14.51,14.11,14.8,3.81-4.83,8.72-10.48c4.91-5.64,9.88-8.96,7.33-10.76s-8.17-2.19-10.36,1.05c0,0-1.37-6.47-8.68-4.87-6.49,1.42-11.12,10.25-11.12,10.25Z"/>
    <path class="cls-1" d="M207.21,101.81c-.98-.22-2.22-.08-3.45,.35-.22,.08-.45,.18-.63,.29l-.56,.31c-1.41,.76-2.93,1.89-4.22,3.18-.58,.57-1.09,1.22-1.56,1.88-.59,.86-1.23,1.68-1.98,2.44-.24,.23-.52,.04-.71-.4-.19-.43-.34-1.16-.1-1.77,.39-1.1,1.03-2.04,1.72-2.93,.69-.9,1.47-1.74,2.37-2.48,1.08-.88,2.02-1.98,3.43-2.75,1.47-.77,3.03-1.27,4.77-1.36,1.06-.06,2.16,.16,3.14,.56,1.51,.6,2.66,1.7,3.66,2.76,.78,.83,1.59,1.6,2.29,2.46,.16,.19,.33,.36,.46,.56,.52,.74,.41,1.11-.29,1.71-.14,.13-.26,.26-.38,.35-.21,.16-.45,.22-.81,.24-.38,.03-.66-.09-.9-.3-1.4-1.27-2.45-2.72-3.6-3.7-.84-.74-1.69-1.19-2.66-1.31v-.08Z"/>
    <path class="cls-1" d="M221.1,101.78c-.57-.37-1.21-.65-1.91-.73-.26-.04-.51,.05-.77,.03-.94-.08-2.01,.09-2.94,.59-.42,.22-.76,.54-1.1,.86-.42,.43-.74,.92-1.19,1.39-.15,.14-.4,.02-.62-.27-.22-.29-.43-.8-.28-1.23,.27-.75,.66-1.49,1.23-2.07,.59-.56,1.29-.99,2.06-1.25,.91-.29,1.8-.77,2.81-.87,1.09-.09,2.22,.1,3.21,.49,.62,.23,1.19,.55,1.73,.9,.82,.54,1.5,1.23,2.15,1.93,.5,.54,1.12,1.04,1.52,1.73,.09,.15,.21,.28,.27,.45,.24,.61-.07,.92-.73,1.19-.16,.06-.31,.13-.46,.18-.49,.15-1.08,.07-1.42-.13-.27-.15-.43-.32-.64-.47-.19-.15-.38-.29-.51-.46-.29-.32-.57-.65-.88-.97-.45-.47-.95-.93-1.55-1.23l.03-.07Z"/>
    <path class="cls-1" d="M229.37,86.62l-.95,.23c-.31,.1-.62,.22-.93,.33-.63,.2-1.23,.51-1.83,.81-.45,.2-.82,.53-1.24,.78-1.48,.9-2.9,1.99-4.1,3.29-.57,.55-.97,1.24-1.41,1.88l-.69,1.32c-.22,.45-.4,.9-.66,1.34-.16,.27-.43,.16-.63-.19-.2-.35-.34-.97-.16-1.59,.77-2.13,2.07-4.04,3.76-5.51,1.02-.86,2.02-1.83,3.16-2.6,.61-.44,1.29-.77,1.94-1.15,.68-.32,1.37-.63,2.08-.9l1.33-.42c.44-.14,.92-.2,1.37-.29,.69-.17,1.41-.14,2.12-.19,.71-.03,1.42,.1,2.13,.11,.54,.11,1.09,.19,1.65,.27,.54,.12,1.06,.34,1.6,.53,.24,.08,.47,.17,.67,.32,.77,.52,.92,.83,.7,1.4-.05,.13-.09,.27-.16,.38-.23,.39-.75,.51-1.29,.34-.77-.32-1.6-.39-2.35-.6-.39-.05-.78-.13-1.16-.22-.4-.02-.8-.04-1.2-.08-.3-.05-.61,.03-.91,.03-.31,.03-.62,0-.93,.07-.61,.14-1.26,.15-1.87,.37l-.02-.06Z"/>
    <path class="cls-1" d="M188.42,107.48c-2.07-1.5-4.16-2.98-6.36-4.3-.79-.5-1.63-.92-2.44-1.39-2.85-1.66-5.77-3.23-8.8-4.57-1.33-.62-2.73-1.11-4.09-1.64-1.77-.63-3.56-1.19-5.24-2.1-.53-.27-.43-.32,.1-.35,.35-.02,.73-.03,1.1-.05,.25,0,.49,0,.73-.01,.13,0,.26,.01,.4,0,.13,.03,.26,.06,.39,.09,3.74,1.04,7.36,2.5,10.84,4.29,2.08,1.07,4.3,2.08,6.39,3.24,2.29,1.29,4.53,2.68,6.7,4.17,1.34,.9,2.65,1.87,3.94,2.83,.98,.73,1.93,1.52,2.89,2.27,.94,.78,1.88,1.57,2.81,2.34,.72,.62,1.45,1.2,2.18,1.78,.71,.61,1.45,1.18,2.13,1.82,.31,.27,.61,.54,.9,.85,.55,.54,.79,1.02,.96,1.35,.16,.34,.2,.59,.16,.85-.01,.12,0,.25-.04,.34-.1,.29-.73,.04-1.71-.55-1.37-.95-2.7-1.99-3.96-3.13-1.3-1.1-2.59-2.24-3.93-3.34-1.97-1.65-4-3.24-6.09-4.75l.03-.04Z"/>
    <path class="cls-1" d="M179.82,107.41c-1.76-1.04-3.63-1.86-5.45-2.78-.92-.45-1.88-.81-2.81-1.21-.95-.38-1.87-.83-2.84-1.15l-4.25-1.41c-5.02-1.6-10.17-2.79-15.4-3.63-1.16-.15-2.34-.28-3.51-.4-.59-.06-1.17-.13-1.75-.17-.59-.03-1.17-.05-1.75-.07-1.5-.05-3-.14-4.5-.13-.75,0-1.5-.07-2.25-.11-.75-.03-1.5-.26-2.26-.38-.94-.2-.82-.22-.03-.5,.4-.14,.96-.38,1.64-.68,.69-.25,1.5-.41,2.38-.5,6.23-.07,12.5,.48,18.64,1.87,1.82,.49,3.71,.84,5.57,1.34l2.8,.75,1.4,.38,1.37,.46,3,1.03c1,.36,1.96,.79,2.95,1.18,1.98,.76,3.87,1.71,5.78,2.61,1.18,.54,2.3,1.22,3.45,1.83l1.71,.94,1.66,1.02,2.51,1.55,2.43,1.67c1.65,1.07,3.17,2.32,4.75,3.45,2.39,1.86,4.78,3.64,7.02,5.64,.49,.44,1,.85,1.45,1.34,.87,.88,1.39,1.51,1.68,2.02,.3,.5,.4,.86,.4,1.23,0,.17,.03,.36,0,.48-.09,.41-1.06-.04-2.52-1.09-.51-.41-1.03-.83-1.55-1.25-.53-.4-1.07-.81-1.61-1.21-1.05-.83-2.06-1.74-3.16-2.55-1.09-.82-2.14-1.7-3.24-2.51-1.1-.82-2.2-1.65-3.31-2.47l-2.54-1.73-1.27-.87-1.31-.81-2.62-1.62-2.7-1.48,.02-.06Z"/>
    <path class="cls-1" d="M103.59,176.52c1.63,4.57,3.23,9.16,4.8,13.76l1.73,5.03c1.92,5.95,3.68,11.96,5.23,18.02,.71,2.68,1.36,5.4,2.02,8.07,.75,3.46,1.55,6.93,1.75,10.48,.09,1.1-.12,.98-.57,.12-.22-.43-.52-1.05-.84-1.8-.34-.75-.65-1.64-.84-2.63-.85-3.48-1.65-6.97-2.45-10.46-.43-1.74-.86-3.49-1.3-5.23-.45-1.74-.91-3.49-1.37-5.24-1.13-4.18-2.6-8.45-4.04-12.64-1.55-4.62-3.19-9.22-4.83-13.82-1.02-2.83-2.05-5.66-3.07-8.48-1.57-4.28-3.14-8.57-4.7-12.82-.63-1.64-1.26-3.26-1.89-4.88-.64-1.61-1.28-3.23-1.85-4.87-.25-.72-.5-1.43-.76-2.16-.92-2.71-1.01-3.64-.87-4.34,.03-.16,.05-.36,.1-.46,.16-.34,.79,.67,1.68,2.57,1.21,2.86,2.56,5.76,3.66,8.8,1.13,3.03,2.27,6.1,3.42,9.18,1.67,4.59,3.36,9.19,5.04,13.79l-.04,.02Z"/>
    <path class="cls-1" d="M324.91,181.25c.76-5.29,1.55-10.58,2.47-15.85,.35-1.92,.58-3.86,.98-5.77,1.29-6.76,2.87-13.46,4.68-20.1l1.22-4.42c.45-1.46,.9-2.92,1.34-4.37,.51-1.88,1.25-3.7,1.94-5.53,.65-1.84,1.6-3.58,2.66-5.23,.66-1.03,.63-.86,.48,.2-.07,.53-.16,1.29-.24,2.2-.12,.89-.47,1.84-.78,2.91l-.89,2.8c-.29,.93-.68,1.83-.94,2.78-.57,1.88-1.2,3.73-1.74,5.62-.53,1.89-1.06,3.79-1.6,5.69-.5,1.91-1,3.83-1.5,5.75-.55,2.31-1.06,4.68-1.52,7.08-.42,2.4-.84,4.82-1.26,7.22-.88,5.28-1.74,10.57-2.46,15.88-.46,3.27-.88,6.54-1.27,9.82-.58,4.96-1.15,9.96-1.6,14.9-.33,3.85-.5,7.63-.86,11.42-.07,.84-.14,1.66-.22,2.5-.29,3.13-.66,4.1-1.05,4.75-.09,.15-.19,.34-.27,.42-.26,.28-.42-1.02-.5-3.33,.03-3.42,.01-6.94,.18-10.5,.21-3.55,.5-7.15,.82-10.76,.5-5.35,1.18-10.71,1.86-16.06h.06Z"/>
    <path class="cls-1" d="M179.17,111.97c1.88,.54,3.75,1.06,5.6,1.71l2.78,.92c.92,.33,1.83,.69,2.74,1.03,3.66,1.36,7.24,2.94,10.73,4.76,1.28,.65,2.54,1.36,3.8,2.14l.94,.62c.33,.22,.72,.58,1.06,.88,.26,.36,.59,.79,.76,1.11l.54,1.01c2.21,4.66,3.7,9.39,5.11,14.19,1.36,4.8,2.5,9.65,3.44,14.54,.46,2.16,.8,4.35,1.22,6.51,.38,2.17,.68,4.36,.99,6.52,.33,2.79,.73,5.58,.93,8.39,.1,1.4,.28,2.8,.28,4.21l.03,4.22c0,1.75-.16,1.52-.55,.07-.35-1.46-1.15-4.12-1.58-7.3-.68-5.65-1.82-11.22-2.79-16.81-1-5.59-2.21-11.15-3.63-16.69-.88-3.3-1.86-6.65-3.1-9.92-.61-1.64-1.27-3.26-1.97-4.84-.37-.76-.72-1.58-1.13-2.28l-.3-.54-.27-.39c-.07-.15-.22-.21-.33-.32-.13-.1-.2-.19-.4-.31-3.03-2.03-6.57-3.69-10.06-5.2l-2.65-1.1-2.7-1c-1.79-.7-3.63-1.25-5.46-1.85-1.12-.38-2.26-.7-3.4-1.01l-3.42-.95c-2.31-.54-4.62-1.06-6.94-1.54l-5.31-.94c-.88-.17-1.77-.29-2.66-.41l-2.67-.38c-3.55-.59-7.13-.81-10.68-1.14-2.77-.15-5.52-.17-8.25-.26-2.74-.02-5.47,.09-8.2,.1-1.21,0-2.38,.08-3.6,.12-2.25,.07-3.74,.07-4.79-.05-1.06-.15-1.67-.36-2.18-.63-.23-.13-.53-.24-.67-.36-.23-.2,.11-.4,.92-.66,.81-.25,2.09-.6,3.76-.78,2.47-.31,4.97-.68,7.52-.76,2.55-.12,5.12-.33,7.72-.34,2.6-.01,5.22,.06,7.84,.17,2.62,.22,5.26,.43,7.89,.65,1.95,.26,3.9,.5,5.85,.79,1.95,.28,3.87,.76,5.8,1.15l2.89,.62,2.87,.73c1.91,.49,3.82,.96,5.71,1.51v.08Z"/>
    <path class="cls-1" d="M141.45,214.76c.89,.28,13.04,3.09,8.25,8.53-3.32,3.77,10.22,1.65,11-.67s-2.73-10.05-2.73-10.05l-8.67,.14-7.85,2.05Z"/>
    <path class="cls-1" d="M305.14,181.05c-17.96,3.01-16.9-8.29-16.47-8.89,0,0-21.61,1.07-22.41,2.69s.13,10.01,.08,11.54,38.8-5.34,38.8-5.34Z"/>
    <path class="cls-1" d="M208.11,133.76l-1.19-4.73-1.13-4.64c-.05-.06,0-.08-.28-.37l-.41-.4-.51-.41c-.69-.55-1.49-1.08-2.3-1.58-1.64-.99-3.39-1.9-5.19-2.71-3.59-1.64-7.37-2.97-11.21-4.11-3.92-1.17-7.94-1.99-11.96-2.75-7.1-1.38-14.32-2.2-21.57-2.62-7.25-.42-14.54-.42-21.82-.06-6.46,.3-12.93,1.04-19.28,1.98-8.16,1.23-16.25,2.97-24.45,4.14-2.56,.35-2.34-.19-.35-1.32,.99-.56,2.43-1.29,4.19-2.08,1.76-.78,3.9-1.39,6.24-1.95,1.04-.23,2.08-.5,3.13-.69l3.15-.55,3.15-.55,3.17-.46c2.11-.31,4.23-.62,6.35-.84,2.12-.25,4.25-.5,6.38-.66,8.52-.76,17.12-1,25.73-.62,10.28,.47,21.02,1.34,31.36,3.64,5.3,1.18,10.54,2.68,15.63,4.67,2.54,1,5.05,2.1,7.48,3.42,1.21,.68,2.41,1.36,3.57,2.2,.59,.4,1.15,.86,1.72,1.37,.28,.28,.56,.51,.85,.9,.34,.36,.52,.87,.72,1.35l.57,2.28c1.69,6.85,3.5,13.67,5.29,20.51,1.36,5.18,2.64,10.41,3.82,15.65,1.16,5.25,2.17,10.52,3.06,15.78,1.36,8.19,2.44,16.27,3.05,24.46,.17,1.8,.27,3.57,.36,5.39,.17,3.38,.16,5.6-.05,7.17-.14,.78-.29,1.4-.48,1.91-.2,.51-.43,.92-.64,1.28-.2,.33-.36,.76-.5,.95-.24,.32-.47-.2-.9-1.42-.46-1.21-.83-3.11-.93-5.56-.51-7.24-1.09-14.65-1.97-22.12-.87-7.47-2.1-14.99-3.67-22.47-2.33-11.11-5.37-22.19-8.29-33.35l.09-.04Z"/>
    <path class="cls-1" d="M165.27,101.37c-5.73-1.62-11.61-2.76-17.54-3.52-2.17-.29-4.35-.41-6.52-.61-7.68-.64-15.42-.87-23.16-.49-3.43,.15-6.88,.47-10.26,.88-2.18,.26-4.36,.51-6.54,.77l-3.28,.38c-1.09,.14-2.2,.12-3.3,.21-1.38,.05-1.23-.14-.14-.69,.54-.27,1.32-.66,2.26-1.09,.95-.4,2.09-.72,3.34-.97,2.22-.43,4.45-.84,6.69-1.17,2.25-.27,4.5-.5,6.76-.68,4.52-.36,9.07-.52,13.64-.44,5.46,.1,11.15,.1,16.72,.63,6.12,.57,12.22,1.52,18.21,2.95,3.68,.9,7.33,1.94,10.91,3.17,5.43,1.87,10.7,4.24,15.7,6.98,3.86,2.17,7.65,4.34,11.16,7.01,.75,.61,1.49,1.21,2.23,1.84,.68,.6,1.26,1.08,1.68,1.56,.42,.47,.71,.91,.95,1.26,.47,.72,.68,1.19,.77,1.64,.04,.21,.13,.44,.13,.59,.01,.47-1.32-.25-3.51-1.66-6.25-4.4-12.79-8.93-20.1-12.28-5.38-2.54-11.02-4.63-16.81-6.2v-.07Z"/>
    <path class="cls-1" d="M181.69,102.3c-4.17-2.1-8.51-3.91-12.94-5.48-1.61-.59-3.27-1.04-4.9-1.57-5.77-1.82-11.65-3.34-17.6-4.48-2.65-.5-5.33-.86-7.98-1.14-1.71-.16-3.42-.28-5.13-.38-.85-.04-1.71-.17-2.56-.23-.43-.03-.85-.1-1.28-.17l-1.28-.18c-1.07-.17-.93-.35-.02-.72,.46-.18,1.11-.45,1.91-.69,.8-.23,1.74-.36,2.75-.38,7.15,.33,14.18,1.53,21.12,3.32,4.14,1.08,8.47,2.12,12.64,3.46,4.58,1.48,9.08,3.21,13.46,5.22,2.69,1.25,5.34,2.59,7.9,4.09,3.89,2.25,7.61,4.85,10.99,7.79,2.61,2.3,5.07,4.73,7.12,7.56,.44,.63,.93,1.21,1.3,1.9,.36,.63,.65,1.15,.88,1.6,.22,.45,.3,.86,.38,1.19,.16,.66,.1,1.1-.04,1.48-.06,.17-.09,.38-.16,.49-.18,.35-1.14-.49-2.14-2.17-3.05-5-7.39-9.49-12.43-13.2-3.72-2.78-7.79-5.18-12.02-7.26l.02-.05Z"/>
    <path class="cls-1" d="M256.97,101.7c6.89-1.66,13.86-2.96,20.86-3.99,2.55-.39,5.1-.79,7.67-1.09,9.05-.96,18.16-1.35,27.26-1,4.03,.14,8.09,.44,12.08,.86,5.1,.6,10.35,1.23,15.09,3.48,1.46,.72,1.16,.89-.29,1.04-1.47,.18-4.03,.39-6.86-.07-5-.95-10.1-1.49-15.23-1.81-5.13-.29-10.3-.49-15.51-.48-6.24,0-12.71,.76-19.04,1.58-6.96,.9-13.91,2.09-20.77,3.63-4.23,.94-8.43,2-12.6,3.18-6.31,1.8-12.58,3.87-18.6,6.34-4.69,1.91-9.11,4.18-13.48,6.56-.97,.52-1.91,1.03-2.88,1.55-.91,.48-1.67,.86-2.31,1.16-.64,.31-1.16,.57-1.62,.71-.94,.26-1.56,.3-2.12,.23-.25-.03-.56-.02-.73-.08-.29-.1-.12-.44,.4-1.04,.53-.59,1.37-1.5,2.66-2.34,1.91-1.23,3.82-2.57,5.88-3.66,1.02-.58,2.05-1.12,3.11-1.64,1.05-.52,2.1-1.08,3.18-1.56,4.28-2.05,8.75-3.82,13.27-5.47,6.73-2.42,13.62-4.44,20.56-6.17l.03,.08Z"/>
    <path class="cls-1" d="M327.14,180.93c.81-6.32,1.77-12.62,2.78-18.92,.37-2.3,.68-4.61,1.08-6.9,1.48-8.07,3.23-16.1,5.26-24.06,.45-1.77,.9-3.54,1.35-5.3,.47-1.76,.95-3.52,1.42-5.26,.61-2.24,1.32-4.46,2-6.69,.18-.55,.35-1.11,.56-1.66l.77-1.58c.5-1.06,1.14-2.06,1.69-3.1,.74-1.27,.65-1.09,.59,.18-.14,1.25,.35,3.79-.29,6.34-2.52,9.01-5.03,18-7.3,27.2-1.35,5.5-2.25,11.34-3.16,17.07-1.06,6.29-1.94,12.62-2.84,18.95-.51,3.9-1.05,7.8-1.51,11.71-.72,5.92-1.44,11.87-2,17.77-.44,4.58-.66,9.1-1,13.64-.09,1-.14,1.98-.25,2.98-.1,.93-.2,1.7-.3,2.35-.11,.64-.26,1.16-.4,1.58-.14,.42-.28,.75-.44,1.02-.18,.27-.37,.47-.56,.66-.17,.17-.34,.39-.46,.49-.36,.32-.95-1.27-.98-4.03,.03-2.04,.08-4.11,.16-6.19,.12-2.08,.26-4.18,.42-6.3,.32-4.23,.72-8.51,1.16-12.8,.65-6.37,1.39-12.76,2.17-19.15h.09Z"/>
    <path class="cls-1" d="M103.84,191.02c-1.85-6.09-3.77-12.18-5.74-18.24l-2.24-6.61-7.61-23.41c-1.16-3.46-2.32-6.93-3.47-10.36-.76-2.19-1.48-4.42-2.19-6.64-.33-1.12-.57-2.28-.83-3.42-.12-.58-.27-1.14-.34-1.73-.09-.59-.11-1.19-.17-1.78-.1-1.48,.17-1.3,.91-.21,.37,.55,.92,1.29,1.41,2.22,.55,.93,1.12,2.03,1.58,3.27,1.51,4.47,3.02,8.93,4.54,13.41,1.52,4.49,2.93,9.03,4.32,13.61,1.65,5.47,3.74,11.05,5.6,16.6,2.03,6.1,4.02,12.23,5.96,18.36,1.17,3.78,2.35,7.57,3.52,11.35,.88,2.87,1.76,5.74,2.59,8.63,.85,2.88,1.69,5.76,2.53,8.61,.64,2.22,1.36,4.4,2.03,6.59,.66,2.19,1.33,4.38,1.99,6.58,.3,.97,.58,1.92,.83,2.91,.23,.92,.41,1.68,.53,2.33,.11,.65,.13,1.19,.13,1.64,.01,.89-.19,1.45-.5,1.93-.14,.22-.25,.49-.38,.63-.37,.45-1.45-.89-2.38-3.48-2.35-7.78-4.64-16.04-7.09-24.3-1.81-6.14-3.66-12.3-5.61-18.43l.07-.03Z"/>
    <path class="cls-1" d="M250.56,91.38c5.91-2.45,11.98-4.46,18.12-6.13,2.24-.62,4.47-1.26,6.74-1.76,8.01-1.7,16.15-2.74,24.31-2.91,3.62-.07,7.26-.11,10.86,.13,1.16,.05,2.31,.2,3.46,.31,1.15,.16,2.3,.31,3.45,.52,2.28,.44,4.56,.98,6.7,1.92,1.34,.55,1.05,.79-.24,.91-.65,.07-1.52,.07-2.58,.16-.53,.03-1.08,0-1.67-.03-.59-.03-1.21-.05-1.85-.14-2.25-.29-4.53-.37-6.8-.49l-3.41-.16-3.43-.04c-4.58,.01-9.17,.27-13.79,.69-5.53,.49-11.19,1.82-16.68,3.25-6.05,1.57-12.02,3.48-17.83,5.83-3.57,1.45-7.11,2.99-10.55,4.72-5.22,2.62-10.33,5.54-15.05,8.92-3.65,2.64-6.97,5.58-10.18,8.63-.7,.68-1.38,1.35-2.11,2.01-1.38,1.19-2.26,2.01-3.02,2.44-.8,.4-1.37,.52-1.95,.51-.26,0-.56,.04-.75,0-.33-.07-.31-.45-.04-1.14,.27-.68,.75-1.71,1.65-2.77,.64-.81,1.34-1.56,2.02-2.36,.69-.79,1.37-1.58,2.16-2.28,.77-.72,1.54-1.44,2.32-2.16,.79-.71,1.62-1.38,2.44-2.07,3.3-2.73,6.83-5.26,10.52-7.57,5.46-3.45,11.24-6.42,17.14-9.02l.05,.09Z"/>
    <path class="cls-1" d="M237.16,92.38c.96-.63,1.87-1.32,2.87-1.89l2.97-1.73c1.94-1.22,4.04-2.15,6.08-3.18,.75-.36,1.47-.79,2.23-1.12,.76-.33,1.53-.67,2.3-.98,1.37-.54,2.71-1.12,4.1-1.6l4.21-1.26,2.1-.63c.7-.22,1.43-.33,2.13-.5l4.28-.95c.63-.13,1.26-.31,1.9-.41,.64-.11,1.28-.18,1.92-.28,1.28-.19,2.56-.38,3.82-.57,3.24-.6,6.58-.54,9.85-.56,1.02,.01,.89,.14,.04,.44-.85,.28-2.4,.84-4.23,1.23-3.29,.38-6.49,1.22-9.71,1.88-1.62,.27-3.21,.72-4.81,1.09l-2.41,.56c-.8,.19-1.63,.33-2.41,.6-1.9,.57-3.81,1.23-5.73,1.91-1.87,.8-3.75,1.61-5.61,2.41-1.05,.39-2.01,.95-3.02,1.44l-2.99,1.5c-1.98,1.04-3.86,2.25-5.79,3.37-1.15,.75-2.27,1.55-3.41,2.33l-1.7,1.18-1.62,1.28-2.46,1.94-2.35,2.08c-1.59,1.36-3.02,2.88-4.48,4.35-1.1,1.18-2.1,2.43-3.11,3.65-.93,1.29-1.91,2.53-2.8,3.84-.41,.57-.79,1.13-1.21,1.69-1.49,2.12-2.05,2.72-2.87,2.91-.19,.04-.4,.12-.56,.12-.27,0-.36-.28-.27-.8,.09-.51,.32-1.29,.78-2.17,.65-1.34,1.4-2.63,2.17-3.94,.83-1.26,1.75-2.47,2.68-3.7,.98-1.18,1.95-2.38,2.99-3.53,1.07-1.12,2.12-2.27,3.25-3.35,1.73-1.53,3.39-3.16,5.25-4.55l2.73-2.15c.94-.68,1.9-1.33,2.85-1.99l.05,.06Z"/>
    <path class="cls-1" d="M288.32,235.31c-2,.05-4,.2-6.01,.31-2,.18-4,.3-6,.55-1.46,.18-2.9,.41-4.35,.61-5.13,.63-10.25,1.48-15.34,2.5-2.25,.49-4.5,1.03-6.69,1.68-1.41,.42-2.82,.84-4.23,1.26-1.42,.38-2.87,.64-4.38,.73-.94,.06-.92-.31-.33-1.06,.29-.37,.73-.86,1.27-1.4,.55-.5,1.24-.95,2.03-1.29,5.8-1.78,11.72-3.15,17.78-4.02,1.82-.23,3.65-.58,5.49-.92,1.85-.31,3.7-.69,5.55-.93,2.04-.26,4.08-.55,6.13-.73l3.07-.3,3.08-.23c1.26-.11,2.53-.16,3.79-.22,1.26-.06,2.53-.13,3.79-.15,1.91-.06,3.83-.1,5.75-.08,1.92,0,3.83,.02,5.73,.03,2.95,.02,5.86-.12,8.79-.08,.65,0,1.28-.04,1.93,0,2.41,.15,3.15,.44,3.56,1.54,.09,.24,.22,.47,.27,.69,.16,.7-.89,1.41-2.63,1.43-5.17,.19-10.55-.04-15.96-.07-4.02,0-8.06,0-12.1,.23v-.09Z"/>
    <path class="cls-1" d="M181.01,240.68c-4.91-.05-9.85,0-14.79,.49-.9,.08-1.8,.17-2.7,.28-.9,.13-1.79,.26-2.69,.35-6.35,.68-12.71,1.59-19.08,2.58-2.82,.44-5.64,1-8.43,1.55-3.58,.7-7.15,1.59-10.87,1.48-1.19-.21-1.06-.39-.22-1.21,.42-.42,1.03-.89,1.78-1.4,.75-.47,1.66-.85,2.68-1.1,.9-.2,1.8-.47,2.71-.64l2.73-.53c1.83-.34,3.66-.68,5.49-1.02,3.67-.64,7.37-1.24,11.12-1.67,4.48-.51,9.1-1.4,13.7-1.94,5.06-.54,10.15-.93,15.26-.94,3.14-.08,6.29,.12,9.42,.24,2.37,.23,4.75,.41,7.11,.73,1.18,.18,2.35,.36,3.53,.54l1.76,.25,1.74,.35c1.8,.38,3.61,.61,5.39,.98,1.78,.39,3.55,.79,5.33,1.18,.79,.17,1.54,.4,2.31,.64,2.82,1.04,3.62,1.63,3.88,2.74,.06,.25,.17,.5,.17,.72,.03,.7-1.35,.96-3.46,.53-.78-.16-1.57-.28-2.34-.5l-1.16-.31-1.18-.25c-1.58-.33-3.15-.7-4.74-1.08-3.2-.6-6.42-1.34-9.7-1.74-4.85-.78-9.79-1.08-14.74-1.22v-.09Z"/>
    <path class="cls-1" d="M280.45,185.7c-2.24,.32-4.47,.67-6.71,1.07-1.12,.19-2.23,.42-3.35,.64l-.84,.17-.22,.05c-.13,.03-.25,.07-.37,.08l-.73,.11c-.48,.07-.98,.16-1.44,.21l-1.17-.11-.36-.1c-.05-.18-.15-.24-.21-.36-.13-.23-.31-.41-.42-.7-.23-.56-.25-1.32-.31-2.04l-.06-1.07-.02-.64c-.01-.42-.02-.85-.02-1.27,.01-1.49,.05-2.98,.13-4.48l.08-1.45c.04-.62,.12-1.23,.37-1.7,.05-.12,.11-.24,.2-.35,.17-.04,.24-.14,.36-.21,.24-.13,.42-.34,.73-.4,.28-.09,.57-.18,.86-.25,.29-.07,.61-.17,.75-.2,2.94-.66,5.86-1.15,8.81-1.55l3.92-.56c1.31-.16,2.63-.29,3.94-.41,1.69-.13,3.39-.33,5.12-.17,.86,.06,1.73,.15,2.59,.35,.86,.23,1.72,.5,2.54,.9,1.02,.58,.67,.77-.28,.98-.48,.13-1.12,.32-1.85,.58-.37,.12-.76,.28-1.17,.39-.4,.09-.84,.19-1.29,.23-.8,.08-1.6,.25-2.4,.31-.81,.07-1.62,.15-2.43,.25-1.63,.17-3.26,.47-4.91,.62-3.31,.32-6.65,.75-10,1.13-.5,.06-1,.14-1.49,.22l-.78,.13c-.07,.03-.19,.01-.21,.1-.02,.08-.03,.16-.04,.24l-.02,.25-.03,.67c-.07,2.05-.05,4.16-.04,6.21v.6c0,.1,0,.21,.02,.31,0,.07,.06,.06,.1,.06l.14-.02,.61-.1,1.53-.3c2.27-.43,4.54-.9,6.83-1.29,2.81-.48,5.63-.94,8.47-1.28,4.3-.53,8.65-.88,13.03-.76,1.06,.08,2.51,.1,2.82,.16l.4,.03c.11-.02,.3,.09,.32-.1,.07-.28,.09-.57,.1-.83v-.4c-.01-.26,.02-.52,.02-.77,.01-.52,.01-1.03,0-1.55-.02-.68-.1-1.34-.15-2-.13-1.23-.1-2-.01-2.57,.05-.28,.13-.52,.26-.74,.16-.23,.35-.44,.55-.66,.18-.19,.32-.43,.47-.58,.25-.25,.62-.19,1.2,.21,.32,.19,.55,.51,.77,.9,.22,.39,.42,.87,.57,1.41,.52,1.86,.58,3.74,.54,5.63l-.04,.71-.03,.36-.09,.45c-.06,.39-.2,.78-.31,1.16l-.31,1.14c-.24,.74-.57,1.37-1.17,1.72l-1.99,.39-1.98-.33-.89-.06c-.6-.03-1.18-.11-1.8-.1-1.23-.01-2.46-.04-3.72,.03-4.42,.17-8.96,.65-13.45,1.36l-.02-.08Z"/>
    <path class="cls-1" d="M156.03,210.98l1.47,.04c.32,.02,.66,0,.96,.05,.28,.07,.6,.11,.85,.21,.13,.05,.27,.07,.38,.16,.04,.19,.18,.22,.26,.33,.18,.18,.37,.38,.53,.61,.27,.54,.38,1.22,.51,1.85l.1,.47,.05,.28,.1,.53,.19,1.06,.35,2.11,.28,1.54,.16,.93c.07,.44,.13,.89,.16,1.31,.03,.28,.02,.54,0,.78l-.34,.56-.08,.13-.05,.07h0c.08,.05-.17-.11,.17,.12h0s0,0,0,0h0s0,0,0,0h-.02s-.03,.04-.03,.04l-.27,.21c-.18,.14-.34,.28-.59,.36l-.9,.2c-.31,.05-.62,.08-.93,.12l-.46,.05c-.15,.03-.33,.02-.4,.02h-.57s-2.25,.05-2.25,.05c-1.48,.01-2.95,.02-4.4,.1-1.58,.07-3.15,.28-4.66,.6-.49,.08-.97,.19-1.45,.31-.48,.1-.95,.23-1.42,.37-.93,.29-1.91,.41-2.85,.7-.6,.14-.74-.2-.47-.87,.27-.65,.95-1.81,2.13-2.36,1.05-.42,2.12-.76,3.18-1.03,1.07-.25,2.16-.38,3.23-.5,2.15-.22,4.28-.25,6.39-.2,.75,.02,1.5,0,2.23-.05l.83-.07c.12,0,.24-.03,.36-.06,.1,0,.16-.04,.25-.06,.02-.08,0-.17-.01-.25l-.03-.25-.02-.13s0-.04,0-.06l-.03-.19-.76-4.12-.21-1.02-.11-.5-.04-.22c-.03-.15-.05-.3-.09-.46-.03-.07-.02-.18-.09-.21-.07-.01-.15-.02-.23-.02-.2-.01-.35-.02-.63-.02l-1.28,.05-2.58,.13c-2.61,.16-5.25,.32-7.83,.68-2.01,.28-3.95,.79-5.91,1.23-.43,.1-.85,.23-1.29,.27-1.64,.19-2.2-.02-2.68-.85-.11-.19-.24-.38-.32-.57-.25-.65,.33-1.32,1.49-1.79,1.71-.76,3.54-1.11,5.39-1.48,1.86-.35,3.75-.6,5.66-.81,1.42-.15,2.84-.28,4.28-.37,1.43-.1,2.87-.19,4.33-.18v.09Z"/>
    <path class="cls-1" d="M274.03,120.03c1.64-.22,3.27-.43,4.92-.58,1.64-.18,3.29-.33,4.93-.47,1.2-.11,2.39-.31,3.59-.38,4.24-.27,8.5-.42,12.75-.27l2.83,.05c.94,.03,1.89,.05,2.82,.08,2.4,.11,4.82,.41,7.16,1.02,.73,.18,.59,.42-.08,.66-.67,.24-1.86,.54-3.2,.59-2.41,.14-4.78,.24-7.18,.26-1.2,.06-2.4,.1-3.6,.12-1.2,.06-2.41,.1-3.63,.06-1.45-.02-2.93,.11-4.42,.24-1.48,.17-2.97,.34-4.45,.5l-4.88,.56-4.88,.64c-2,.28-4.01,.54-6,.89-3.02,.5-6.06,1.01-9.02,1.71-2.31,.52-4.53,1.21-6.77,1.84-.5,.14-.97,.3-1.48,.42-1.88,.37-2.54,.28-3.11-.25-.13-.12-.29-.23-.38-.36-.3-.42,.35-1.04,1.65-1.69,.96-.51,1.97-.89,2.99-1.26,1.02-.38,2.06-.74,3.11-1.07,1.05-.33,2.11-.67,3.19-.95,1.09-.24,2.18-.49,3.27-.73,3.26-.66,6.55-1.22,9.84-1.73l.02,.08Z"/>
    <path class="cls-1" d="M282.87,132.8c2.14-.24,4.31-.45,6.47-.65,.79-.07,1.57-.22,2.37-.27,2.81-.14,5.64-.08,8.44,.08,1.25,.07,2.49,.13,3.73,.2,.79,.09,1.58,.21,2.36,.34,.78,.15,1.55,.39,2.31,.64,.47,.17,.34,.44-.13,.72-.47,.27-1.28,.61-2.16,.61-1.57,.06-3.11,.12-4.65,.01-.77,0-1.55-.03-2.32-.05-.78,0-1.56-.03-2.35-.05-1.89-.05-3.83,.33-5.76,.54-2.12,.22-4.26,.49-6.39,.77l-3.95,.56c-1.99,.29-4.01,.51-5.99,.86-1.53,.28-3.02,.69-4.53,.97-.33,.06-.66,.15-1,.17-1.27,.09-1.7-.06-2.05-.56-.08-.11-.18-.22-.23-.34-.18-.38,.28-.81,1.16-1.2,2.59-1.15,5.4-1.75,8.24-2.35,1.06-.22,2.11-.43,3.18-.62l3.23-.45,.02,.08Z"/>
    <path class="cls-1" d="M237.55,99.85c1.38-.78,2.74-1.59,4.14-2.33,1.42-.7,2.8-1.46,4.25-2.11,1.05-.48,2.04-1.07,3.11-1.5l2.8-1.18,2.86-1.04c.94-.36,1.92-.65,2.87-.98,.95-.33,1.91-.64,2.88-.93,1.71-.54,3.42-1.08,5.11-1.62,1.09-.34,2.19-.65,3.29-.96,1.11-.26,2.26-.4,3.39-.57,.71-.09,.65,.1,.13,.49-.52,.38-1.49,1.05-2.69,1.55-4.38,1.41-8.69,2.94-13.04,4.51-2.6,.94-5.19,2.23-7.75,3.43-2.8,1.36-5.58,2.77-8.27,4.33-1.68,.92-3.29,1.97-4.91,2.99-1.19,.83-2.4,1.64-3.57,2.5-1.14,.9-2.32,1.75-3.39,2.71-.84,.74-1.66,1.48-2.46,2.24l-2.31,2.37c-.35,.34-.65,.71-.98,1.07-1.31,1.25-1.84,1.56-2.44,1.55-.13,0-.28,.03-.38,.01-.32-.04-.08-.83,.69-1.98,.55-.87,1.16-1.71,1.86-2.48,.68-.79,1.38-1.58,2.1-2.36,.75-.75,1.51-1.5,2.3-2.24,.78-.74,1.66-1.37,2.49-2.05,2.5-2.01,5.19-3.77,7.89-5.49l.04,.05Z"/>
    <path class="cls-1" d="M210.02,162.17c.86,3.51,1.67,7.04,2.35,10.59,.27,1.29,.55,2.58,.77,3.88,.41,2.29,.68,4.6,.94,6.91l.36,3.46,.28,3.47c.16,2.05,.3,4.11,.4,6.15,.05,1.31,.12,2.62,.15,3.93-.02,1.31-.1,2.63-.17,3.94-.06,.82-.17,.71-.38,.02-.2-.69-.58-1.94-.8-3.43-.28-2.64-.54-5.28-.87-7.91-.1-1.32-.24-2.64-.38-3.96-.12-1.32-.25-2.65-.4-3.98-.08-.79-.18-1.6-.29-2.4-.14-.8-.28-1.61-.42-2.41-.26-1.62-.61-3.23-.9-4.84-.32-1.77-.72-3.52-1.07-5.29-.41-1.75-.78-3.51-1.24-5.26-.53-2.15-1.1-4.3-1.71-6.43-.93-3.23-1.89-6.47-2.99-9.62-.43-1.22-.89-2.43-1.36-3.62-.49-1.19-.97-2.37-1.42-3.57-.21-.53-.41-1.04-.61-1.57-.69-2-.68-2.71-.36-3.32,.08-.14,.14-.31,.23-.4,.29-.32,.91,.37,1.67,1.75,2.14,4.12,3.73,8.73,5.23,13.38,1.12,3.46,2.1,6.98,3.04,10.5l-.06,.02Z"/>
  </g>
</svg>