<svg width="10" height="16" viewBox="0 0 10 16" fill="none" xmlns="http://www.w3.org/2000/svg">
<path d="M8.07757 15.6544L8.07668 15.6528L8.06895 15.6459L0.381103 8.69166L0.381022 8.69159C0.279592 8.60016 0.199489 8.49185 0.144966 8.37308C0.0904551 8.25433 0.0625 8.12727 0.0625 7.99913C0.0625 7.87099 0.0904551 7.74393 0.144967 7.62518C0.199489 7.5064 0.279592 7.3981 0.381022 7.30667L0.381103 7.3066L8.06895 0.352406C8.2735 0.167379 8.55215 0.0625 8.84386 0.0625C9.13557 0.0625 9.41422 0.167379 9.61877 0.352406C9.82311 0.537245 9.93654 0.786518 9.93654 1.04494C9.93654 1.30336 9.82311 1.55263 9.61877 1.73747L2.74679 7.95365L2.69555 8L2.74679 8.04635L9.61973 14.2625C9.82407 14.4474 9.9375 14.6966 9.9375 14.9551C9.9375 15.2135 9.82407 15.4628 9.61973 15.6476C9.41518 15.8326 9.13653 15.9375 8.84482 15.9375C8.55674 15.9375 8.28138 15.8352 8.07757 15.6544Z" fill="white" stroke="white" stroke-width="0.125"/>
</svg>
