<svg width="68" height="55" viewBox="0 0 68 55" fill="none" xmlns="http://www.w3.org/2000/svg">
<path d="M3.48535 29.3454L28.7928 54.6529L44.5617 38.884L19.2542 13.5691C14.9347 9.13066 7.961 8.90762 3.65635 12.6918C-1.0349 16.8106 -1.33972 24.6021 3.48535 29.338V29.3454Z" fill="url(#paint0_linear_1953_12)"/>
<path d="M48.74 3.4432C36.9561 15.3758 13.3809 39.2409 13.3809 39.2409C13.3809 39.2409 23.6555 49.5156 28.7928 54.6529C40.6659 42.869 52.5391 31.0852 64.4122 19.3013C68.8804 15.0115 69.1406 8.0378 65.3861 3.70341C61.297 -1.01015 53.5056 -1.35957 48.74 3.43576V3.4432Z" fill="#854DFF"/>
<defs>
<linearGradient id="paint0_linear_1953_12" x1="-1.77836" y1="23.1524" x2="43.5208" y2="41.449" gradientUnits="userSpaceOnUse">
<stop stop-color="#854DFF"/>
<stop offset="0.51" stop-color="#5D39B0"/>
<stop offset="1" stop-color="#171626"/>
</linearGradient>
</defs>
</svg>
